%TF.GenerationSoftware,KiCad,Pcbnew,7.0.8*%
%TF.CreationDate,2023-10-31T15:50:40-07:00*%
%TF.ProjectId,lab 4,6c616220-342e-46b6-9963-61645f706362,rev?*%
%TF.SameCoordinates,Original*%
%TF.FileFunction,Soldermask,Bot*%
%TF.FilePolarity,Negative*%
%FSLAX46Y46*%
G04 Gerber Fmt 4.6, Leading zero omitted, Abs format (unit mm)*
G04 Created by KiCad (PCBNEW 7.0.8) date 2023-10-31 15:50:40*
%MOMM*%
%LPD*%
G01*
G04 APERTURE LIST*
%ADD10C,1.600000*%
%ADD11O,1.600000X1.600000*%
%ADD12R,1.700000X1.700000*%
%ADD13O,1.700000X1.700000*%
G04 APERTURE END LIST*
D10*
%TO.C,R11*%
X149606000Y-60452000D03*
D11*
X159766000Y-60452000D03*
%TD*%
D12*
%TO.C,J3*%
X175260000Y-93980000D03*
D13*
X175260000Y-91440000D03*
X175260000Y-88900000D03*
X175260000Y-86360000D03*
X175260000Y-83820000D03*
X175260000Y-81280000D03*
X175260000Y-78740000D03*
X175260000Y-76200000D03*
%TD*%
D10*
%TO.C,R3*%
X146558000Y-95250000D03*
D11*
X146558000Y-85090000D03*
%TD*%
D12*
%TO.C,J5*%
X135382000Y-43688000D03*
D13*
X135382000Y-46228000D03*
X135382000Y-48768000D03*
X135382000Y-51308000D03*
X135382000Y-53848000D03*
%TD*%
D10*
%TO.C,R13*%
X146558000Y-57912000D03*
D11*
X146558000Y-47752000D03*
%TD*%
D10*
%TO.C,R15*%
X146558000Y-45466000D03*
D11*
X146558000Y-35306000D03*
%TD*%
D10*
%TO.C,R1*%
X150114000Y-89916000D03*
D11*
X160274000Y-89916000D03*
%TD*%
D10*
%TO.C,R10*%
X149606000Y-66040000D03*
D11*
X159766000Y-66040000D03*
%TD*%
D10*
%TO.C,R16*%
X149860000Y-45466000D03*
D11*
X160020000Y-45466000D03*
%TD*%
D10*
%TO.C,R5*%
X146558000Y-82804000D03*
D11*
X146558000Y-72644000D03*
%TD*%
D10*
%TO.C,R8*%
X149606000Y-71374000D03*
D11*
X159766000Y-71374000D03*
%TD*%
D10*
%TO.C,R4*%
X149860000Y-85090000D03*
D11*
X160020000Y-85090000D03*
%TD*%
D10*
%TO.C,R14*%
X149860000Y-51816000D03*
D11*
X160020000Y-51816000D03*
%TD*%
D10*
%TO.C,R12*%
X149606000Y-56642000D03*
D11*
X159766000Y-56642000D03*
%TD*%
D10*
%TO.C,R7*%
X149606000Y-76200000D03*
D11*
X159766000Y-76200000D03*
%TD*%
D10*
%TO.C,R17*%
X149860000Y-41148000D03*
D11*
X160020000Y-41148000D03*
%TD*%
D10*
%TO.C,R9*%
X146558000Y-70358000D03*
D11*
X146558000Y-60198000D03*
%TD*%
D10*
%TO.C,R2*%
X150368000Y-94982000D03*
D11*
X160528000Y-94982000D03*
%TD*%
D10*
%TO.C,R6*%
X149606000Y-80772000D03*
D11*
X159766000Y-80772000D03*
%TD*%
D12*
%TO.C,J4*%
X175260000Y-72136000D03*
D13*
X175260000Y-69596000D03*
X175260000Y-67056000D03*
X175260000Y-64516000D03*
X175260000Y-61976000D03*
X175260000Y-59436000D03*
X175260000Y-56896000D03*
X175260000Y-54356000D03*
X175260000Y-51816000D03*
X175260000Y-49276000D03*
%TD*%
D12*
%TO.C,J2*%
X127000000Y-58420000D03*
D13*
X127000000Y-60960000D03*
X127000000Y-63500000D03*
X127000000Y-66040000D03*
X127000000Y-68580000D03*
X127000000Y-71120000D03*
X127000000Y-73660000D03*
X127000000Y-76200000D03*
%TD*%
D12*
%TO.C,J1*%
X127000000Y-81280000D03*
D13*
X127000000Y-83820000D03*
X127000000Y-86360000D03*
X127000000Y-88900000D03*
X127000000Y-91440000D03*
X127000000Y-93980000D03*
%TD*%
M02*
