M48
; DRILL file {KiCad 7.0.8} date Tue Oct 31 15:48:04 2023
; FORMAT={-:-/ absolute / inch / decimal}
; #@! TF.CreationDate,2023-10-31T15:48:04-07:00
; #@! TF.GenerationSoftware,Kicad,Pcbnew,7.0.8
; #@! TF.FileFunction,Plated,1,2,PTH
FMAT,2
INCH
; #@! TA.AperFunction,Plated,PTH,ViaDrill
T1C0.0157
; #@! TA.AperFunction,Plated,PTH,ComponentDrill
T2C0.0315
; #@! TA.AperFunction,Plated,PTH,ComponentDrill
T3C0.0394
%
G90
G05
T1
X5.5Y-1.67
X5.87Y-1.92
X6.01Y-2.99
X6.03Y-2.23
X6.1Y-2.8258
X6.1933Y-1.4333
X6.1965Y-1.91
X6.41Y-1.86
X6.45Y-1.41
X6.5Y-1.46
X6.53Y-1.28
X6.62Y-1.73
X6.75Y-1.28
X6.81Y-1.6
X6.82Y-1.32
X6.82Y-1.4
X6.85Y-1.45
X6.86Y-1.74
X6.87Y-1.28
X6.88Y-1.38
X6.92Y-1.28
X6.93Y-1.54
X6.93Y-1.64
X6.93Y-1.8
X6.95Y-1.44
X6.98Y-1.28
X7.0Y-1.74
X7.01Y-1.32
X7.01Y-1.4
X7.02Y-1.5
X7.02Y-1.58
X7.03Y-1.28
X7.03Y-1.36
T2
X5.77Y-1.39
X5.77Y-1.79
X5.77Y-1.88
X5.77Y-2.28
X5.77Y-2.37
X5.77Y-2.77
X5.77Y-2.86
X5.77Y-3.26
X5.77Y-3.35
X5.77Y-3.75
X5.89Y-2.23
X5.89Y-2.38
X5.89Y-2.6
X5.89Y-2.81
X5.89Y-3.0
X5.89Y-3.18
X5.9Y-1.62
X5.9Y-1.79
X5.9Y-2.04
X5.9Y-3.35
X5.91Y-3.54
X5.92Y-3.7394
X6.29Y-2.23
X6.29Y-2.38
X6.29Y-2.6
X6.29Y-2.81
X6.29Y-3.0
X6.29Y-3.18
X6.3Y-1.62
X6.3Y-1.79
X6.3Y-2.04
X6.3Y-3.35
X6.31Y-3.54
X6.32Y-3.7394
T3
X5.0Y-2.3
X5.0Y-2.4
X5.0Y-2.5
X5.0Y-2.6
X5.0Y-2.7
X5.0Y-2.8
X5.0Y-2.9
X5.0Y-3.0
X5.0Y-3.2
X5.0Y-3.3
X5.0Y-3.4
X5.0Y-3.5
X5.0Y-3.6
X5.0Y-3.7
X5.33Y-1.72
X5.33Y-1.82
X5.33Y-1.92
X5.33Y-2.02
X5.33Y-2.12
X6.9Y-1.94
X6.9Y-2.04
X6.9Y-2.14
X6.9Y-2.24
X6.9Y-2.34
X6.9Y-2.44
X6.9Y-2.54
X6.9Y-2.64
X6.9Y-2.74
X6.9Y-2.84
X6.9Y-3.0
X6.9Y-3.1
X6.9Y-3.2
X6.9Y-3.3
X6.9Y-3.4
X6.9Y-3.5
X6.9Y-3.6
X6.9Y-3.7
T0
M30
