%TF.GenerationSoftware,KiCad,Pcbnew,7.0.8*%
%TF.CreationDate,2023-10-31T15:50:40-07:00*%
%TF.ProjectId,lab 4,6c616220-342e-46b6-9963-61645f706362,rev?*%
%TF.SameCoordinates,Original*%
%TF.FileFunction,Copper,L2,Bot*%
%TF.FilePolarity,Positive*%
%FSLAX46Y46*%
G04 Gerber Fmt 4.6, Leading zero omitted, Abs format (unit mm)*
G04 Created by KiCad (PCBNEW 7.0.8) date 2023-10-31 15:50:40*
%MOMM*%
%LPD*%
G01*
G04 APERTURE LIST*
%TA.AperFunction,ComponentPad*%
%ADD10C,1.600000*%
%TD*%
%TA.AperFunction,ComponentPad*%
%ADD11O,1.600000X1.600000*%
%TD*%
%TA.AperFunction,ComponentPad*%
%ADD12R,1.700000X1.700000*%
%TD*%
%TA.AperFunction,ComponentPad*%
%ADD13O,1.700000X1.700000*%
%TD*%
%TA.AperFunction,ViaPad*%
%ADD14C,0.800000*%
%TD*%
%TA.AperFunction,Conductor*%
%ADD15C,0.250000*%
%TD*%
G04 APERTURE END LIST*
D10*
%TO.P,R11,1*%
%TO.N,Net-(R10-Pad2)*%
X149606000Y-60452000D03*
D11*
%TO.P,R11,2*%
%TO.N,Net-(R11-Pad2)*%
X159766000Y-60452000D03*
%TD*%
D12*
%TO.P,J3,1,Pin_1*%
%TO.N,unconnected-(J3-Pin_1-Pad1)*%
X175260000Y-93980000D03*
D13*
%TO.P,J3,2,Pin_2*%
%TO.N,unconnected-(J3-Pin_2-Pad2)*%
X175260000Y-91440000D03*
%TO.P,J3,3,Pin_3*%
%TO.N,/vin0*%
X175260000Y-88900000D03*
%TO.P,J3,4,Pin_4*%
%TO.N,/vin1*%
X175260000Y-86360000D03*
%TO.P,J3,5,Pin_5*%
%TO.N,/vin2*%
X175260000Y-83820000D03*
%TO.P,J3,6,Pin_6*%
%TO.N,/vin3*%
X175260000Y-81280000D03*
%TO.P,J3,7,Pin_7*%
%TO.N,/vin4*%
X175260000Y-78740000D03*
%TO.P,J3,8,Pin_8*%
%TO.N,/vin5*%
X175260000Y-76200000D03*
%TD*%
D10*
%TO.P,R3,1*%
%TO.N,Net-(R1-Pad2)*%
X146558000Y-95250000D03*
D11*
%TO.P,R3,2*%
%TO.N,Net-(R3-Pad2)*%
X146558000Y-85090000D03*
%TD*%
D12*
%TO.P,J5,1,Pin_1*%
%TO.N,GND*%
X135382000Y-43688000D03*
D13*
%TO.P,J5,2,Pin_2*%
%TO.N,/vout_r2r*%
X135382000Y-46228000D03*
%TO.P,J5,3,Pin_3*%
%TO.N,/vout_ltc*%
X135382000Y-48768000D03*
%TO.P,J5,4,Pin_4*%
%TO.N,/vout_mcp*%
X135382000Y-51308000D03*
%TO.P,J5,5,Pin_5*%
%TO.N,/ARDUINO_A3*%
X135382000Y-53848000D03*
%TD*%
D10*
%TO.P,R13,1*%
%TO.N,Net-(R11-Pad2)*%
X146558000Y-57912000D03*
D11*
%TO.P,R13,2*%
%TO.N,Net-(R13-Pad2)*%
X146558000Y-47752000D03*
%TD*%
D10*
%TO.P,R15,1*%
%TO.N,Net-(R13-Pad2)*%
X146558000Y-45466000D03*
D11*
%TO.P,R15,2*%
%TO.N,Net-(R15-Pad2)*%
X146558000Y-35306000D03*
%TD*%
D10*
%TO.P,R1,1*%
%TO.N,/vin0*%
X150114000Y-89916000D03*
D11*
%TO.P,R1,2*%
%TO.N,Net-(R1-Pad2)*%
X160274000Y-89916000D03*
%TD*%
D10*
%TO.P,R10,1*%
%TO.N,/vin4*%
X149606000Y-66040000D03*
D11*
%TO.P,R10,2*%
%TO.N,Net-(R10-Pad2)*%
X159766000Y-66040000D03*
%TD*%
D10*
%TO.P,R16,1*%
%TO.N,/vin7*%
X149860000Y-45466000D03*
D11*
%TO.P,R16,2*%
%TO.N,Net-(R15-Pad2)*%
X160020000Y-45466000D03*
%TD*%
D10*
%TO.P,R5,1*%
%TO.N,Net-(R3-Pad2)*%
X146558000Y-82804000D03*
D11*
%TO.P,R5,2*%
%TO.N,Net-(R5-Pad2)*%
X146558000Y-72644000D03*
%TD*%
D10*
%TO.P,R8,1*%
%TO.N,/vin3*%
X149606000Y-71374000D03*
D11*
%TO.P,R8,2*%
%TO.N,Net-(R7-Pad2)*%
X159766000Y-71374000D03*
%TD*%
D10*
%TO.P,R4,1*%
%TO.N,/vin1*%
X149860000Y-85090000D03*
D11*
%TO.P,R4,2*%
%TO.N,Net-(R3-Pad2)*%
X160020000Y-85090000D03*
%TD*%
D10*
%TO.P,R14,1*%
%TO.N,/vin6*%
X149860000Y-51816000D03*
D11*
%TO.P,R14,2*%
%TO.N,Net-(R13-Pad2)*%
X160020000Y-51816000D03*
%TD*%
D10*
%TO.P,R12,1*%
%TO.N,/vin5*%
X149606000Y-56642000D03*
D11*
%TO.P,R12,2*%
%TO.N,Net-(R11-Pad2)*%
X159766000Y-56642000D03*
%TD*%
D10*
%TO.P,R7,1*%
%TO.N,Net-(R5-Pad2)*%
X149606000Y-76200000D03*
D11*
%TO.P,R7,2*%
%TO.N,Net-(R7-Pad2)*%
X159766000Y-76200000D03*
%TD*%
D10*
%TO.P,R17,1*%
%TO.N,Net-(R15-Pad2)*%
X149860000Y-41148000D03*
D11*
%TO.P,R17,2*%
%TO.N,/vout_r2r*%
X160020000Y-41148000D03*
%TD*%
D10*
%TO.P,R9,1*%
%TO.N,Net-(R7-Pad2)*%
X146558000Y-70358000D03*
D11*
%TO.P,R9,2*%
%TO.N,Net-(R10-Pad2)*%
X146558000Y-60198000D03*
%TD*%
D10*
%TO.P,R2,1*%
%TO.N,Net-(R1-Pad2)*%
X150368000Y-94982000D03*
D11*
%TO.P,R2,2*%
%TO.N,unconnected-(R2-Pad2)*%
X160528000Y-94982000D03*
%TD*%
D10*
%TO.P,R6,1*%
%TO.N,/vin2*%
X149606000Y-80772000D03*
D11*
%TO.P,R6,2*%
%TO.N,Net-(R5-Pad2)*%
X159766000Y-80772000D03*
%TD*%
D12*
%TO.P,J4,1,Pin_1*%
%TO.N,/vin6*%
X175260000Y-72136000D03*
D13*
%TO.P,J4,2,Pin_2*%
%TO.N,/vin7*%
X175260000Y-69596000D03*
%TO.P,J4,3,Pin_3*%
%TO.N,unconnected-(J4-Pin_3-Pad3)*%
X175260000Y-67056000D03*
%TO.P,J4,4,Pin_4*%
%TO.N,unconnected-(J4-Pin_4-Pad4)*%
X175260000Y-64516000D03*
%TO.P,J4,5,Pin_5*%
%TO.N,unconnected-(J4-Pin_5-Pad5)*%
X175260000Y-61976000D03*
%TO.P,J4,6,Pin_6*%
%TO.N,unconnected-(J4-Pin_6-Pad6)*%
X175260000Y-59436000D03*
%TO.P,J4,7,Pin_7*%
%TO.N,GND*%
X175260000Y-56896000D03*
%TO.P,J4,8,Pin_8*%
%TO.N,unconnected-(J4-Pin_8-Pad8)*%
X175260000Y-54356000D03*
%TO.P,J4,9,Pin_9*%
%TO.N,unconnected-(J4-Pin_9-Pad9)*%
X175260000Y-51816000D03*
%TO.P,J4,10,Pin_10*%
%TO.N,unconnected-(J4-Pin_10-Pad10)*%
X175260000Y-49276000D03*
%TD*%
D12*
%TO.P,J2,1,Pin_1*%
%TO.N,unconnected-(J2-Pin_1-Pad1)*%
X127000000Y-58420000D03*
D13*
%TO.P,J2,2,Pin_2*%
%TO.N,unconnected-(J2-Pin_2-Pad2)*%
X127000000Y-60960000D03*
%TO.P,J2,3,Pin_3*%
%TO.N,unconnected-(J2-Pin_3-Pad3)*%
X127000000Y-63500000D03*
%TO.P,J2,4,Pin_4*%
%TO.N,unconnected-(J2-Pin_4-Pad4)*%
X127000000Y-66040000D03*
%TO.P,J2,5,Pin_5*%
%TO.N,+5V*%
X127000000Y-68580000D03*
%TO.P,J2,6,Pin_6*%
%TO.N,GND*%
X127000000Y-71120000D03*
%TO.P,J2,7,Pin_7*%
X127000000Y-73660000D03*
%TO.P,J2,8,Pin_8*%
%TO.N,unconnected-(J2-Pin_8-Pad8)*%
X127000000Y-76200000D03*
%TD*%
D12*
%TO.P,J1,1,Pin_1*%
%TO.N,/vout_r2r*%
X127000000Y-81280000D03*
D13*
%TO.P,J1,2,Pin_2*%
%TO.N,/vout_ltc*%
X127000000Y-83820000D03*
%TO.P,J1,3,Pin_3*%
%TO.N,/vout_mcp*%
X127000000Y-86360000D03*
%TO.P,J1,4,Pin_4*%
%TO.N,/ARDUINO_A3*%
X127000000Y-88900000D03*
%TO.P,J1,5,Pin_5*%
%TO.N,unconnected-(J1-Pin_5-Pad5)*%
X127000000Y-91440000D03*
%TO.P,J1,6,Pin_6*%
%TO.N,unconnected-(J1-Pin_6-Pad6)*%
X127000000Y-93980000D03*
%TD*%
D14*
%TO.N,/vout_r2r*%
X165100000Y-37084000D03*
%TO.N,/vout_ltc*%
X157309360Y-36405360D03*
X139700000Y-42418000D03*
X163830000Y-35814000D03*
%TO.N,/vout_mcp*%
X157390018Y-48514000D03*
X162814000Y-47244000D03*
X168148000Y-43942000D03*
%TO.N,+5V*%
X171450000Y-32512000D03*
X178562000Y-32512000D03*
X177800000Y-44196000D03*
X178054000Y-33528000D03*
X173228000Y-35560000D03*
X176022000Y-39116000D03*
X178308000Y-40132000D03*
X175768000Y-32512000D03*
X176022000Y-41656000D03*
X173990000Y-36830000D03*
X178562000Y-34544000D03*
X177292000Y-32512000D03*
X174752000Y-35052000D03*
X165862000Y-32512000D03*
X174244000Y-44196000D03*
X176022000Y-45720000D03*
X178054000Y-35560000D03*
X178308000Y-38100000D03*
X176530000Y-36576000D03*
X173228000Y-33528000D03*
X174498000Y-32512000D03*
X172974000Y-40640000D03*
%TO.N,/vin3*%
X152654000Y-75946000D03*
X154940000Y-71774500D03*
%TO.N,/vin5*%
X153162000Y-56642000D03*
%TO.N,Net-(R13-Pad2)*%
X149098000Y-48768000D03*
%TD*%
D15*
%TO.N,/vout_r2r*%
X135382000Y-46228000D02*
X129598000Y-52012000D01*
X127000000Y-81280000D02*
X127850000Y-81280000D01*
X165100000Y-37084000D02*
X161036000Y-41148000D01*
X129598000Y-78682000D02*
X127000000Y-81280000D01*
X160020000Y-41148000D02*
X161290000Y-41148000D01*
X129598000Y-52012000D02*
X129598000Y-78682000D01*
X161036000Y-41148000D02*
X160020000Y-41148000D01*
%TO.N,/vout_ltc*%
X157734000Y-35814000D02*
X157226000Y-36322000D01*
X139700000Y-42418000D02*
X139700000Y-44450000D01*
X135382000Y-48768000D02*
X130556000Y-53594000D01*
X130556000Y-80264000D02*
X127000000Y-83820000D01*
X130556000Y-53594000D02*
X130556000Y-80264000D01*
X139700000Y-44450000D02*
X135382000Y-48768000D01*
X163830000Y-35814000D02*
X157734000Y-35814000D01*
X157226000Y-36322000D02*
X157309360Y-36405360D01*
%TO.N,/vout_mcp*%
X131572000Y-55118000D02*
X131572000Y-82932396D01*
X168402000Y-46228000D02*
X168402000Y-44196000D01*
X131572000Y-55118000D02*
X135382000Y-51308000D01*
X135382000Y-51308000D02*
X135999000Y-50691000D01*
X165482396Y-46228000D02*
X168402000Y-46228000D01*
X131572000Y-82932396D02*
X128144396Y-86360000D01*
X154541000Y-50691000D02*
X156718000Y-48514000D01*
X168402000Y-44196000D02*
X168148000Y-43942000D01*
X128144396Y-86360000D02*
X127000000Y-86360000D01*
X162814000Y-47244000D02*
X164466396Y-47244000D01*
X135999000Y-50691000D02*
X154541000Y-50691000D01*
X156718000Y-48514000D02*
X157390018Y-48514000D01*
X164466396Y-47244000D02*
X165482396Y-46228000D01*
%TO.N,/ARDUINO_A3*%
X133604000Y-83058000D02*
X133096000Y-83566000D01*
X132334000Y-83566000D02*
X127000000Y-88900000D01*
X133096000Y-83566000D02*
X132334000Y-83566000D01*
X133604000Y-55626000D02*
X135382000Y-53848000D01*
X133604000Y-55626000D02*
X133604000Y-83058000D01*
%TO.N,/vin3*%
X154940000Y-73660000D02*
X152654000Y-75946000D01*
X154940000Y-71774500D02*
X154940000Y-73660000D01*
%TO.N,/vin5*%
X153162000Y-61722000D02*
X167640000Y-76200000D01*
X167640000Y-76200000D02*
X175260000Y-76200000D01*
X153162000Y-56642000D02*
X153162000Y-61722000D01*
%TO.N,/vin6*%
X153887000Y-58420000D02*
X158967000Y-63500000D01*
X158967000Y-63500000D02*
X161544000Y-63500000D01*
X161544000Y-63500000D02*
X170180000Y-72136000D01*
X149860000Y-51816000D02*
X153887000Y-55843000D01*
X153887000Y-55843000D02*
X153887000Y-58420000D01*
X170180000Y-72136000D02*
X175260000Y-72136000D01*
%TO.N,/vin7*%
X164338000Y-62992000D02*
X164338000Y-65278000D01*
X164592000Y-62738000D02*
X164338000Y-62992000D01*
X155367323Y-45466000D02*
X157145323Y-47244000D01*
X164592000Y-50292000D02*
X164592000Y-62738000D01*
X159512000Y-47244000D02*
X161145000Y-48877000D01*
X161145000Y-48877000D02*
X163177000Y-48877000D01*
X157145323Y-47244000D02*
X159512000Y-47244000D01*
X164338000Y-65278000D02*
X168656000Y-69596000D01*
X149860000Y-45466000D02*
X155367323Y-45466000D01*
X163177000Y-48877000D02*
X164592000Y-50292000D01*
X168656000Y-69596000D02*
X175260000Y-69596000D01*
%TO.N,Net-(R13-Pad2)*%
X148082000Y-47752000D02*
X146558000Y-47752000D01*
X149098000Y-48768000D02*
X148082000Y-47752000D01*
%TD*%
%TA.AperFunction,Conductor*%
%TO.N,+5V*%
G36*
X177880653Y-31277255D02*
G01*
X177895264Y-31288028D01*
X178433819Y-31749646D01*
X179280426Y-32475309D01*
X179318516Y-32533884D01*
X179323727Y-32568961D01*
X179577274Y-95955794D01*
X179557858Y-96022912D01*
X179535656Y-96048969D01*
X177327046Y-98012179D01*
X177263863Y-98042005D01*
X177244665Y-98043500D01*
X125806945Y-98043500D01*
X125739906Y-98023815D01*
X125696036Y-97974954D01*
X124219591Y-95022063D01*
X124206500Y-94966609D01*
X124206500Y-93980000D01*
X125644341Y-93980000D01*
X125664936Y-94215403D01*
X125664938Y-94215413D01*
X125726094Y-94443655D01*
X125726096Y-94443659D01*
X125726097Y-94443663D01*
X125797724Y-94597267D01*
X125825965Y-94657830D01*
X125825967Y-94657834D01*
X125894220Y-94755308D01*
X125961505Y-94851401D01*
X126128599Y-95018495D01*
X126225384Y-95086265D01*
X126322165Y-95154032D01*
X126322167Y-95154033D01*
X126322170Y-95154035D01*
X126536337Y-95253903D01*
X126764592Y-95315063D01*
X126941034Y-95330500D01*
X126999999Y-95335659D01*
X127000000Y-95335659D01*
X127000001Y-95335659D01*
X127058966Y-95330500D01*
X127235408Y-95315063D01*
X127463663Y-95253903D01*
X127472031Y-95250001D01*
X145252532Y-95250001D01*
X145272364Y-95476686D01*
X145272366Y-95476697D01*
X145331258Y-95696488D01*
X145331261Y-95696497D01*
X145427431Y-95902732D01*
X145427432Y-95902734D01*
X145557954Y-96089141D01*
X145718858Y-96250045D01*
X145718861Y-96250047D01*
X145905266Y-96380568D01*
X146111504Y-96476739D01*
X146331308Y-96535635D01*
X146493230Y-96549801D01*
X146557998Y-96555468D01*
X146558000Y-96555468D01*
X146558002Y-96555468D01*
X146614673Y-96550509D01*
X146784692Y-96535635D01*
X147004496Y-96476739D01*
X147210734Y-96380568D01*
X147397139Y-96250047D01*
X147558047Y-96089139D01*
X147688568Y-95902734D01*
X147784739Y-95696496D01*
X147843635Y-95476692D01*
X147863468Y-95250000D01*
X147859854Y-95208697D01*
X147847924Y-95072331D01*
X147843635Y-95023308D01*
X147832567Y-94982001D01*
X149062532Y-94982001D01*
X149082364Y-95208686D01*
X149082366Y-95208697D01*
X149141258Y-95428488D01*
X149141261Y-95428497D01*
X149237431Y-95634732D01*
X149237432Y-95634734D01*
X149367954Y-95821141D01*
X149528858Y-95982045D01*
X149528861Y-95982047D01*
X149715266Y-96112568D01*
X149921504Y-96208739D01*
X150141308Y-96267635D01*
X150303230Y-96281801D01*
X150367998Y-96287468D01*
X150368000Y-96287468D01*
X150368002Y-96287468D01*
X150424673Y-96282509D01*
X150594692Y-96267635D01*
X150814496Y-96208739D01*
X151020734Y-96112568D01*
X151207139Y-95982047D01*
X151368047Y-95821139D01*
X151498568Y-95634734D01*
X151594739Y-95428496D01*
X151653635Y-95208692D01*
X151672233Y-94996117D01*
X151673468Y-94982001D01*
X159222532Y-94982001D01*
X159242364Y-95208686D01*
X159242366Y-95208697D01*
X159301258Y-95428488D01*
X159301261Y-95428497D01*
X159397431Y-95634732D01*
X159397432Y-95634734D01*
X159527954Y-95821141D01*
X159688858Y-95982045D01*
X159688861Y-95982047D01*
X159875266Y-96112568D01*
X160081504Y-96208739D01*
X160301308Y-96267635D01*
X160463230Y-96281801D01*
X160527998Y-96287468D01*
X160528000Y-96287468D01*
X160528002Y-96287468D01*
X160584673Y-96282509D01*
X160754692Y-96267635D01*
X160974496Y-96208739D01*
X161180734Y-96112568D01*
X161367139Y-95982047D01*
X161528047Y-95821139D01*
X161658568Y-95634734D01*
X161754739Y-95428496D01*
X161813635Y-95208692D01*
X161832233Y-94996117D01*
X161833468Y-94982001D01*
X161833468Y-94981998D01*
X161822042Y-94851401D01*
X161813635Y-94755308D01*
X161754739Y-94535504D01*
X161658568Y-94329266D01*
X161528047Y-94142861D01*
X161528045Y-94142858D01*
X161367141Y-93981954D01*
X161180734Y-93851432D01*
X161180732Y-93851431D01*
X160974497Y-93755261D01*
X160974488Y-93755258D01*
X160754697Y-93696366D01*
X160754693Y-93696365D01*
X160754692Y-93696365D01*
X160754691Y-93696364D01*
X160754686Y-93696364D01*
X160528002Y-93676532D01*
X160527998Y-93676532D01*
X160301313Y-93696364D01*
X160301302Y-93696366D01*
X160081511Y-93755258D01*
X160081502Y-93755261D01*
X159875267Y-93851431D01*
X159875265Y-93851432D01*
X159688858Y-93981954D01*
X159527954Y-94142858D01*
X159397432Y-94329265D01*
X159397431Y-94329267D01*
X159301261Y-94535502D01*
X159301258Y-94535511D01*
X159242366Y-94755302D01*
X159242364Y-94755313D01*
X159222532Y-94981998D01*
X159222532Y-94982001D01*
X151673468Y-94982001D01*
X151673468Y-94981998D01*
X151662042Y-94851401D01*
X151653635Y-94755308D01*
X151594739Y-94535504D01*
X151498568Y-94329266D01*
X151368047Y-94142861D01*
X151368045Y-94142858D01*
X151207141Y-93981954D01*
X151020734Y-93851432D01*
X151020732Y-93851431D01*
X150814497Y-93755261D01*
X150814488Y-93755258D01*
X150594697Y-93696366D01*
X150594693Y-93696365D01*
X150594692Y-93696365D01*
X150594691Y-93696364D01*
X150594686Y-93696364D01*
X150368002Y-93676532D01*
X150367998Y-93676532D01*
X150141313Y-93696364D01*
X150141302Y-93696366D01*
X149921511Y-93755258D01*
X149921502Y-93755261D01*
X149715267Y-93851431D01*
X149715265Y-93851432D01*
X149528858Y-93981954D01*
X149367954Y-94142858D01*
X149237432Y-94329265D01*
X149237431Y-94329267D01*
X149141261Y-94535502D01*
X149141258Y-94535511D01*
X149082366Y-94755302D01*
X149082364Y-94755313D01*
X149062532Y-94981998D01*
X149062532Y-94982001D01*
X147832567Y-94982001D01*
X147784739Y-94803504D01*
X147688568Y-94597266D01*
X147558047Y-94410861D01*
X147558045Y-94410858D01*
X147397141Y-94249954D01*
X147210734Y-94119432D01*
X147210732Y-94119431D01*
X147004497Y-94023261D01*
X147004488Y-94023258D01*
X146784697Y-93964366D01*
X146784693Y-93964365D01*
X146784692Y-93964365D01*
X146784691Y-93964364D01*
X146784686Y-93964364D01*
X146558002Y-93944532D01*
X146557998Y-93944532D01*
X146331313Y-93964364D01*
X146331302Y-93964366D01*
X146111511Y-94023258D01*
X146111502Y-94023261D01*
X145905267Y-94119431D01*
X145905265Y-94119432D01*
X145718858Y-94249954D01*
X145557954Y-94410858D01*
X145427432Y-94597265D01*
X145427431Y-94597267D01*
X145331261Y-94803502D01*
X145331258Y-94803511D01*
X145272366Y-95023302D01*
X145272364Y-95023313D01*
X145252532Y-95249998D01*
X145252532Y-95250001D01*
X127472031Y-95250001D01*
X127677830Y-95154035D01*
X127871401Y-95018495D01*
X128038495Y-94851401D01*
X128174035Y-94657830D01*
X128273903Y-94443663D01*
X128335063Y-94215408D01*
X128355659Y-93980000D01*
X128335063Y-93744592D01*
X128273903Y-93516337D01*
X128174035Y-93302171D01*
X128038495Y-93108599D01*
X128038494Y-93108597D01*
X127871402Y-92941506D01*
X127871396Y-92941501D01*
X127685842Y-92811575D01*
X127642217Y-92756998D01*
X127635023Y-92687500D01*
X127666546Y-92625145D01*
X127685842Y-92608425D01*
X127798054Y-92529853D01*
X127871401Y-92478495D01*
X128038495Y-92311401D01*
X128174035Y-92117830D01*
X128273903Y-91903663D01*
X128335063Y-91675408D01*
X128355659Y-91440000D01*
X128335063Y-91204592D01*
X128273903Y-90976337D01*
X128174035Y-90762171D01*
X128169112Y-90755139D01*
X128038494Y-90568597D01*
X127871402Y-90401506D01*
X127871396Y-90401501D01*
X127685842Y-90271575D01*
X127642217Y-90216998D01*
X127635023Y-90147500D01*
X127666546Y-90085145D01*
X127685842Y-90068425D01*
X127708026Y-90052891D01*
X127871401Y-89938495D01*
X127893895Y-89916001D01*
X148808532Y-89916001D01*
X148828364Y-90142686D01*
X148828366Y-90142697D01*
X148887258Y-90362488D01*
X148887261Y-90362497D01*
X148983431Y-90568732D01*
X148983432Y-90568734D01*
X149113954Y-90755141D01*
X149274858Y-90916045D01*
X149274861Y-90916047D01*
X149461266Y-91046568D01*
X149667504Y-91142739D01*
X149887308Y-91201635D01*
X150049230Y-91215801D01*
X150113998Y-91221468D01*
X150114000Y-91221468D01*
X150114002Y-91221468D01*
X150170673Y-91216509D01*
X150340692Y-91201635D01*
X150560496Y-91142739D01*
X150766734Y-91046568D01*
X150953139Y-90916047D01*
X151114047Y-90755139D01*
X151244568Y-90568734D01*
X151340739Y-90362496D01*
X151399635Y-90142692D01*
X151419468Y-89916001D01*
X158968532Y-89916001D01*
X158988364Y-90142686D01*
X158988366Y-90142697D01*
X159047258Y-90362488D01*
X159047261Y-90362497D01*
X159143431Y-90568732D01*
X159143432Y-90568734D01*
X159273954Y-90755141D01*
X159434858Y-90916045D01*
X159434861Y-90916047D01*
X159621266Y-91046568D01*
X159827504Y-91142739D01*
X160047308Y-91201635D01*
X160209230Y-91215801D01*
X160273998Y-91221468D01*
X160274000Y-91221468D01*
X160274002Y-91221468D01*
X160330673Y-91216509D01*
X160500692Y-91201635D01*
X160720496Y-91142739D01*
X160926734Y-91046568D01*
X161113139Y-90916047D01*
X161274047Y-90755139D01*
X161404568Y-90568734D01*
X161500739Y-90362496D01*
X161559635Y-90142692D01*
X161579468Y-89916000D01*
X161559635Y-89689308D01*
X161500739Y-89469504D01*
X161404568Y-89263266D01*
X161274047Y-89076861D01*
X161274045Y-89076858D01*
X161113141Y-88915954D01*
X160926734Y-88785432D01*
X160926732Y-88785431D01*
X160720497Y-88689261D01*
X160720488Y-88689258D01*
X160500697Y-88630366D01*
X160500693Y-88630365D01*
X160500692Y-88630365D01*
X160500691Y-88630364D01*
X160500686Y-88630364D01*
X160274002Y-88610532D01*
X160273998Y-88610532D01*
X160047313Y-88630364D01*
X160047302Y-88630366D01*
X159827511Y-88689258D01*
X159827502Y-88689261D01*
X159621267Y-88785431D01*
X159621265Y-88785432D01*
X159434858Y-88915954D01*
X159273954Y-89076858D01*
X159143432Y-89263265D01*
X159143431Y-89263267D01*
X159047261Y-89469502D01*
X159047258Y-89469511D01*
X158988366Y-89689302D01*
X158988364Y-89689313D01*
X158968532Y-89915998D01*
X158968532Y-89916001D01*
X151419468Y-89916001D01*
X151419468Y-89916000D01*
X151399635Y-89689308D01*
X151340739Y-89469504D01*
X151244568Y-89263266D01*
X151114047Y-89076861D01*
X151114045Y-89076858D01*
X150953141Y-88915954D01*
X150766734Y-88785432D01*
X150766732Y-88785431D01*
X150560497Y-88689261D01*
X150560488Y-88689258D01*
X150340697Y-88630366D01*
X150340693Y-88630365D01*
X150340692Y-88630365D01*
X150340691Y-88630364D01*
X150340686Y-88630364D01*
X150114002Y-88610532D01*
X150113998Y-88610532D01*
X149887313Y-88630364D01*
X149887302Y-88630366D01*
X149667511Y-88689258D01*
X149667502Y-88689261D01*
X149461267Y-88785431D01*
X149461265Y-88785432D01*
X149274858Y-88915954D01*
X149113954Y-89076858D01*
X148983432Y-89263265D01*
X148983431Y-89263267D01*
X148887261Y-89469502D01*
X148887258Y-89469511D01*
X148828366Y-89689302D01*
X148828364Y-89689313D01*
X148808532Y-89915998D01*
X148808532Y-89916001D01*
X127893895Y-89916001D01*
X128038495Y-89771401D01*
X128174035Y-89577830D01*
X128273903Y-89363663D01*
X128335063Y-89135408D01*
X128355659Y-88900000D01*
X128335063Y-88664592D01*
X128308143Y-88564125D01*
X128309806Y-88494276D01*
X128340235Y-88444353D01*
X131694589Y-85090001D01*
X145252532Y-85090001D01*
X145272364Y-85316686D01*
X145272366Y-85316697D01*
X145331258Y-85536488D01*
X145331261Y-85536497D01*
X145427431Y-85742732D01*
X145427432Y-85742734D01*
X145557954Y-85929141D01*
X145718858Y-86090045D01*
X145718861Y-86090047D01*
X145905266Y-86220568D01*
X146111504Y-86316739D01*
X146331308Y-86375635D01*
X146493230Y-86389801D01*
X146557998Y-86395468D01*
X146558000Y-86395468D01*
X146558002Y-86395468D01*
X146614673Y-86390509D01*
X146784692Y-86375635D01*
X147004496Y-86316739D01*
X147210734Y-86220568D01*
X147397139Y-86090047D01*
X147558047Y-85929139D01*
X147688568Y-85742734D01*
X147784739Y-85536496D01*
X147843635Y-85316692D01*
X147863468Y-85090001D01*
X148554532Y-85090001D01*
X148574364Y-85316686D01*
X148574366Y-85316697D01*
X148633258Y-85536488D01*
X148633261Y-85536497D01*
X148729431Y-85742732D01*
X148729432Y-85742734D01*
X148859954Y-85929141D01*
X149020858Y-86090045D01*
X149020861Y-86090047D01*
X149207266Y-86220568D01*
X149413504Y-86316739D01*
X149633308Y-86375635D01*
X149795230Y-86389801D01*
X149859998Y-86395468D01*
X149860000Y-86395468D01*
X149860002Y-86395468D01*
X149916673Y-86390509D01*
X150086692Y-86375635D01*
X150306496Y-86316739D01*
X150512734Y-86220568D01*
X150699139Y-86090047D01*
X150860047Y-85929139D01*
X150990568Y-85742734D01*
X151086739Y-85536496D01*
X151145635Y-85316692D01*
X151165468Y-85090001D01*
X158714532Y-85090001D01*
X158734364Y-85316686D01*
X158734366Y-85316697D01*
X158793258Y-85536488D01*
X158793261Y-85536497D01*
X158889431Y-85742732D01*
X158889432Y-85742734D01*
X159019954Y-85929141D01*
X159180858Y-86090045D01*
X159180861Y-86090047D01*
X159367266Y-86220568D01*
X159573504Y-86316739D01*
X159793308Y-86375635D01*
X159955230Y-86389801D01*
X160019998Y-86395468D01*
X160020000Y-86395468D01*
X160020002Y-86395468D01*
X160076673Y-86390509D01*
X160246692Y-86375635D01*
X160466496Y-86316739D01*
X160672734Y-86220568D01*
X160859139Y-86090047D01*
X161020047Y-85929139D01*
X161150568Y-85742734D01*
X161246739Y-85536496D01*
X161305635Y-85316692D01*
X161325468Y-85090000D01*
X161305635Y-84863308D01*
X161246739Y-84643504D01*
X161150568Y-84437266D01*
X161020047Y-84250861D01*
X161020045Y-84250858D01*
X160859141Y-84089954D01*
X160672734Y-83959432D01*
X160672732Y-83959431D01*
X160466497Y-83863261D01*
X160466488Y-83863258D01*
X160246697Y-83804366D01*
X160246693Y-83804365D01*
X160246692Y-83804365D01*
X160246691Y-83804364D01*
X160246686Y-83804364D01*
X160020002Y-83784532D01*
X160019998Y-83784532D01*
X159793313Y-83804364D01*
X159793302Y-83804366D01*
X159573511Y-83863258D01*
X159573502Y-83863261D01*
X159367267Y-83959431D01*
X159367265Y-83959432D01*
X159180858Y-84089954D01*
X159019954Y-84250858D01*
X158889432Y-84437265D01*
X158889431Y-84437267D01*
X158793261Y-84643502D01*
X158793258Y-84643511D01*
X158734366Y-84863302D01*
X158734364Y-84863313D01*
X158714532Y-85089998D01*
X158714532Y-85090001D01*
X151165468Y-85090001D01*
X151165468Y-85090000D01*
X151145635Y-84863308D01*
X151086739Y-84643504D01*
X150990568Y-84437266D01*
X150860047Y-84250861D01*
X150860045Y-84250858D01*
X150699141Y-84089954D01*
X150512734Y-83959432D01*
X150512732Y-83959431D01*
X150306497Y-83863261D01*
X150306488Y-83863258D01*
X150086697Y-83804366D01*
X150086693Y-83804365D01*
X150086692Y-83804365D01*
X150086691Y-83804364D01*
X150086686Y-83804364D01*
X149860002Y-83784532D01*
X149859998Y-83784532D01*
X149633313Y-83804364D01*
X149633302Y-83804366D01*
X149413511Y-83863258D01*
X149413502Y-83863261D01*
X149207267Y-83959431D01*
X149207265Y-83959432D01*
X149020858Y-84089954D01*
X148859954Y-84250858D01*
X148729432Y-84437265D01*
X148729431Y-84437267D01*
X148633261Y-84643502D01*
X148633258Y-84643511D01*
X148574366Y-84863302D01*
X148574364Y-84863313D01*
X148554532Y-85089998D01*
X148554532Y-85090001D01*
X147863468Y-85090001D01*
X147863468Y-85090000D01*
X147843635Y-84863308D01*
X147784739Y-84643504D01*
X147688568Y-84437266D01*
X147558047Y-84250861D01*
X147558045Y-84250858D01*
X147397141Y-84089954D01*
X147338045Y-84048575D01*
X147294420Y-83993999D01*
X147287226Y-83924500D01*
X147318749Y-83862145D01*
X147338045Y-83845425D01*
X147358261Y-83831269D01*
X147397139Y-83804047D01*
X147558047Y-83643139D01*
X147688568Y-83456734D01*
X147784739Y-83250496D01*
X147843635Y-83030692D01*
X147863468Y-82804000D01*
X147843635Y-82577308D01*
X147784739Y-82357504D01*
X147688568Y-82151266D01*
X147558047Y-81964861D01*
X147558045Y-81964858D01*
X147397141Y-81803954D01*
X147210734Y-81673432D01*
X147210732Y-81673431D01*
X147004497Y-81577261D01*
X147004488Y-81577258D01*
X146784697Y-81518366D01*
X146784693Y-81518365D01*
X146784692Y-81518365D01*
X146784691Y-81518364D01*
X146784686Y-81518364D01*
X146558002Y-81498532D01*
X146557998Y-81498532D01*
X146331313Y-81518364D01*
X146331302Y-81518366D01*
X146111511Y-81577258D01*
X146111502Y-81577261D01*
X145905267Y-81673431D01*
X145905265Y-81673432D01*
X145718858Y-81803954D01*
X145557954Y-81964858D01*
X145427432Y-82151265D01*
X145427431Y-82151267D01*
X145331261Y-82357502D01*
X145331258Y-82357511D01*
X145272366Y-82577302D01*
X145272364Y-82577313D01*
X145252532Y-82803998D01*
X145252532Y-82804001D01*
X145272364Y-83030686D01*
X145272366Y-83030697D01*
X145331258Y-83250488D01*
X145331261Y-83250497D01*
X145427431Y-83456732D01*
X145427432Y-83456734D01*
X145557954Y-83643141D01*
X145718858Y-83804045D01*
X145777955Y-83845425D01*
X145821580Y-83900001D01*
X145828774Y-83969500D01*
X145797251Y-84031855D01*
X145777955Y-84048575D01*
X145718858Y-84089954D01*
X145557954Y-84250858D01*
X145427432Y-84437265D01*
X145427431Y-84437267D01*
X145331261Y-84643502D01*
X145331258Y-84643511D01*
X145272366Y-84863302D01*
X145272364Y-84863313D01*
X145252532Y-85089998D01*
X145252532Y-85090001D01*
X131694589Y-85090001D01*
X132556772Y-84227819D01*
X132618095Y-84194334D01*
X132644453Y-84191500D01*
X133013257Y-84191500D01*
X133028877Y-84193224D01*
X133028904Y-84192939D01*
X133036660Y-84193671D01*
X133036667Y-84193673D01*
X133105814Y-84191500D01*
X133135350Y-84191500D01*
X133142228Y-84190630D01*
X133148041Y-84190172D01*
X133194627Y-84188709D01*
X133213869Y-84183117D01*
X133232912Y-84179174D01*
X133252792Y-84176664D01*
X133296122Y-84159507D01*
X133301646Y-84157617D01*
X133305396Y-84156527D01*
X133346390Y-84144618D01*
X133363629Y-84134422D01*
X133381103Y-84125862D01*
X133399727Y-84118488D01*
X133399727Y-84118487D01*
X133399732Y-84118486D01*
X133437449Y-84091082D01*
X133442305Y-84087892D01*
X133482420Y-84064170D01*
X133496589Y-84049999D01*
X133511379Y-84037368D01*
X133527587Y-84025594D01*
X133557299Y-83989676D01*
X133561212Y-83985376D01*
X133987785Y-83558803D01*
X134000041Y-83548987D01*
X133999858Y-83548765D01*
X134005875Y-83543787D01*
X134005874Y-83543787D01*
X134005877Y-83543786D01*
X134030251Y-83517829D01*
X134053227Y-83493364D01*
X134063671Y-83482918D01*
X134074120Y-83472471D01*
X134078379Y-83466978D01*
X134082152Y-83462561D01*
X134114062Y-83428582D01*
X134123713Y-83411024D01*
X134134396Y-83394761D01*
X134146673Y-83378936D01*
X134165185Y-83336153D01*
X134167738Y-83330941D01*
X134190197Y-83290092D01*
X134195180Y-83270680D01*
X134201481Y-83252280D01*
X134209437Y-83233896D01*
X134216729Y-83187852D01*
X134217906Y-83182171D01*
X134229500Y-83137019D01*
X134229500Y-83116983D01*
X134231027Y-83097582D01*
X134234160Y-83077804D01*
X134229775Y-83031418D01*
X134229500Y-83025580D01*
X134229500Y-80772001D01*
X148300532Y-80772001D01*
X148320364Y-80998686D01*
X148320366Y-80998697D01*
X148379258Y-81218488D01*
X148379261Y-81218497D01*
X148475431Y-81424732D01*
X148475432Y-81424734D01*
X148605954Y-81611141D01*
X148766858Y-81772045D01*
X148766861Y-81772047D01*
X148953266Y-81902568D01*
X149159504Y-81998739D01*
X149379308Y-82057635D01*
X149541230Y-82071801D01*
X149605998Y-82077468D01*
X149606000Y-82077468D01*
X149606002Y-82077468D01*
X149662673Y-82072509D01*
X149832692Y-82057635D01*
X150052496Y-81998739D01*
X150258734Y-81902568D01*
X150445139Y-81772047D01*
X150606047Y-81611139D01*
X150736568Y-81424734D01*
X150832739Y-81218496D01*
X150891635Y-80998692D01*
X150911468Y-80772001D01*
X158460532Y-80772001D01*
X158480364Y-80998686D01*
X158480366Y-80998697D01*
X158539258Y-81218488D01*
X158539261Y-81218497D01*
X158635431Y-81424732D01*
X158635432Y-81424734D01*
X158765954Y-81611141D01*
X158926858Y-81772045D01*
X158926861Y-81772047D01*
X159113266Y-81902568D01*
X159319504Y-81998739D01*
X159539308Y-82057635D01*
X159701230Y-82071801D01*
X159765998Y-82077468D01*
X159766000Y-82077468D01*
X159766002Y-82077468D01*
X159822673Y-82072509D01*
X159992692Y-82057635D01*
X160212496Y-81998739D01*
X160418734Y-81902568D01*
X160605139Y-81772047D01*
X160766047Y-81611139D01*
X160896568Y-81424734D01*
X160992739Y-81218496D01*
X161051635Y-80998692D01*
X161071468Y-80772000D01*
X161051635Y-80545308D01*
X160992739Y-80325504D01*
X160896568Y-80119266D01*
X160766047Y-79932861D01*
X160766045Y-79932858D01*
X160605141Y-79771954D01*
X160418734Y-79641432D01*
X160418732Y-79641431D01*
X160212497Y-79545261D01*
X160212488Y-79545258D01*
X159992697Y-79486366D01*
X159992693Y-79486365D01*
X159992692Y-79486365D01*
X159992691Y-79486364D01*
X159992686Y-79486364D01*
X159766002Y-79466532D01*
X159765998Y-79466532D01*
X159539313Y-79486364D01*
X159539302Y-79486366D01*
X159319511Y-79545258D01*
X159319502Y-79545261D01*
X159113267Y-79641431D01*
X159113265Y-79641432D01*
X158926858Y-79771954D01*
X158765954Y-79932858D01*
X158635432Y-80119265D01*
X158635431Y-80119267D01*
X158539261Y-80325502D01*
X158539258Y-80325511D01*
X158480366Y-80545302D01*
X158480364Y-80545313D01*
X158460532Y-80771998D01*
X158460532Y-80772001D01*
X150911468Y-80772001D01*
X150911468Y-80772000D01*
X150891635Y-80545308D01*
X150832739Y-80325504D01*
X150736568Y-80119266D01*
X150606047Y-79932861D01*
X150606045Y-79932858D01*
X150445141Y-79771954D01*
X150258734Y-79641432D01*
X150258732Y-79641431D01*
X150052497Y-79545261D01*
X150052488Y-79545258D01*
X149832697Y-79486366D01*
X149832693Y-79486365D01*
X149832692Y-79486365D01*
X149832691Y-79486364D01*
X149832686Y-79486364D01*
X149606002Y-79466532D01*
X149605998Y-79466532D01*
X149379313Y-79486364D01*
X149379302Y-79486366D01*
X149159511Y-79545258D01*
X149159502Y-79545261D01*
X148953267Y-79641431D01*
X148953265Y-79641432D01*
X148766858Y-79771954D01*
X148605954Y-79932858D01*
X148475432Y-80119265D01*
X148475431Y-80119267D01*
X148379261Y-80325502D01*
X148379258Y-80325511D01*
X148320366Y-80545302D01*
X148320364Y-80545313D01*
X148300532Y-80771998D01*
X148300532Y-80772001D01*
X134229500Y-80772001D01*
X134229500Y-76200001D01*
X148300532Y-76200001D01*
X148320364Y-76426686D01*
X148320366Y-76426697D01*
X148379258Y-76646488D01*
X148379261Y-76646497D01*
X148475431Y-76852732D01*
X148475432Y-76852734D01*
X148605954Y-77039141D01*
X148766858Y-77200045D01*
X148766861Y-77200047D01*
X148953266Y-77330568D01*
X149159504Y-77426739D01*
X149379308Y-77485635D01*
X149541230Y-77499801D01*
X149605998Y-77505468D01*
X149606000Y-77505468D01*
X149606002Y-77505468D01*
X149662673Y-77500509D01*
X149832692Y-77485635D01*
X150052496Y-77426739D01*
X150258734Y-77330568D01*
X150445139Y-77200047D01*
X150606047Y-77039139D01*
X150736568Y-76852734D01*
X150832739Y-76646496D01*
X150891635Y-76426692D01*
X150911468Y-76200000D01*
X150891635Y-75973308D01*
X150884318Y-75946000D01*
X151748540Y-75946000D01*
X151768326Y-76134256D01*
X151768327Y-76134259D01*
X151826818Y-76314277D01*
X151826821Y-76314284D01*
X151921467Y-76478216D01*
X152032812Y-76601877D01*
X152048129Y-76618888D01*
X152201265Y-76730148D01*
X152201270Y-76730151D01*
X152374192Y-76807142D01*
X152374197Y-76807144D01*
X152559354Y-76846500D01*
X152559355Y-76846500D01*
X152748644Y-76846500D01*
X152748646Y-76846500D01*
X152933803Y-76807144D01*
X153106730Y-76730151D01*
X153259871Y-76618888D01*
X153386533Y-76478216D01*
X153481179Y-76314284D01*
X153518312Y-76200001D01*
X158460532Y-76200001D01*
X158480364Y-76426686D01*
X158480366Y-76426697D01*
X158539258Y-76646488D01*
X158539261Y-76646497D01*
X158635431Y-76852732D01*
X158635432Y-76852734D01*
X158765954Y-77039141D01*
X158926858Y-77200045D01*
X158926861Y-77200047D01*
X159113266Y-77330568D01*
X159319504Y-77426739D01*
X159539308Y-77485635D01*
X159701230Y-77499801D01*
X159765998Y-77505468D01*
X159766000Y-77505468D01*
X159766002Y-77505468D01*
X159822673Y-77500509D01*
X159992692Y-77485635D01*
X160212496Y-77426739D01*
X160418734Y-77330568D01*
X160605139Y-77200047D01*
X160766047Y-77039139D01*
X160896568Y-76852734D01*
X160992739Y-76646496D01*
X161051635Y-76426692D01*
X161071468Y-76200000D01*
X161051635Y-75973308D01*
X160992739Y-75753504D01*
X160896568Y-75547266D01*
X160766047Y-75360861D01*
X160766045Y-75360858D01*
X160605141Y-75199954D01*
X160418734Y-75069432D01*
X160418732Y-75069431D01*
X160212497Y-74973261D01*
X160212488Y-74973258D01*
X159992697Y-74914366D01*
X159992693Y-74914365D01*
X159992692Y-74914365D01*
X159992691Y-74914364D01*
X159992686Y-74914364D01*
X159766002Y-74894532D01*
X159765998Y-74894532D01*
X159539313Y-74914364D01*
X159539302Y-74914366D01*
X159319511Y-74973258D01*
X159319502Y-74973261D01*
X159113267Y-75069431D01*
X159113265Y-75069432D01*
X158926858Y-75199954D01*
X158765954Y-75360858D01*
X158635432Y-75547265D01*
X158635431Y-75547267D01*
X158539261Y-75753502D01*
X158539258Y-75753511D01*
X158480366Y-75973302D01*
X158480364Y-75973313D01*
X158460532Y-76199998D01*
X158460532Y-76200001D01*
X153518312Y-76200001D01*
X153539674Y-76134256D01*
X153557321Y-75966344D01*
X153583904Y-75901734D01*
X153592951Y-75891638D01*
X155323788Y-74160801D01*
X155336042Y-74150986D01*
X155335859Y-74150764D01*
X155341866Y-74145792D01*
X155341877Y-74145786D01*
X155372775Y-74112882D01*
X155389227Y-74095364D01*
X155399671Y-74084918D01*
X155410120Y-74074471D01*
X155414379Y-74068978D01*
X155418152Y-74064561D01*
X155450062Y-74030582D01*
X155459713Y-74013024D01*
X155470396Y-73996761D01*
X155482673Y-73980936D01*
X155501185Y-73938153D01*
X155503738Y-73932941D01*
X155526197Y-73892092D01*
X155531180Y-73872680D01*
X155537481Y-73854280D01*
X155545437Y-73835896D01*
X155552729Y-73789852D01*
X155553906Y-73784171D01*
X155565500Y-73739019D01*
X155565500Y-73718983D01*
X155567027Y-73699582D01*
X155570160Y-73679804D01*
X155565775Y-73633415D01*
X155565500Y-73627577D01*
X155565500Y-72473187D01*
X155585185Y-72406148D01*
X155597350Y-72390215D01*
X155617802Y-72367500D01*
X155672533Y-72306716D01*
X155767179Y-72142784D01*
X155825674Y-71962756D01*
X155845460Y-71774500D01*
X155825674Y-71586244D01*
X155767179Y-71406216D01*
X155672533Y-71242284D01*
X155545871Y-71101612D01*
X155545870Y-71101611D01*
X155392734Y-70990351D01*
X155392729Y-70990348D01*
X155219807Y-70913357D01*
X155219802Y-70913355D01*
X155074001Y-70882365D01*
X155034646Y-70874000D01*
X154845354Y-70874000D01*
X154812897Y-70880898D01*
X154660197Y-70913355D01*
X154660192Y-70913357D01*
X154487270Y-70990348D01*
X154487265Y-70990351D01*
X154334129Y-71101611D01*
X154207466Y-71242285D01*
X154112821Y-71406215D01*
X154112818Y-71406222D01*
X154055164Y-71583664D01*
X154054326Y-71586244D01*
X154034540Y-71774500D01*
X154054326Y-71962756D01*
X154054327Y-71962759D01*
X154112818Y-72142777D01*
X154112821Y-72142784D01*
X154207467Y-72306716D01*
X154250772Y-72354810D01*
X154282650Y-72390215D01*
X154312880Y-72453206D01*
X154314500Y-72473187D01*
X154314500Y-73349547D01*
X154294815Y-73416586D01*
X154278181Y-73437228D01*
X152706228Y-75009181D01*
X152644905Y-75042666D01*
X152618547Y-75045500D01*
X152559354Y-75045500D01*
X152526897Y-75052398D01*
X152374197Y-75084855D01*
X152374192Y-75084857D01*
X152201270Y-75161848D01*
X152201265Y-75161851D01*
X152048129Y-75273111D01*
X151921466Y-75413785D01*
X151826821Y-75577715D01*
X151826818Y-75577722D01*
X151769701Y-75753511D01*
X151768326Y-75757744D01*
X151748540Y-75946000D01*
X150884318Y-75946000D01*
X150832739Y-75753504D01*
X150736568Y-75547266D01*
X150606047Y-75360861D01*
X150606045Y-75360858D01*
X150445141Y-75199954D01*
X150258734Y-75069432D01*
X150258732Y-75069431D01*
X150052497Y-74973261D01*
X150052488Y-74973258D01*
X149832697Y-74914366D01*
X149832693Y-74914365D01*
X149832692Y-74914365D01*
X149832691Y-74914364D01*
X149832686Y-74914364D01*
X149606002Y-74894532D01*
X149605998Y-74894532D01*
X149379313Y-74914364D01*
X149379302Y-74914366D01*
X149159511Y-74973258D01*
X149159502Y-74973261D01*
X148953267Y-75069431D01*
X148953265Y-75069432D01*
X148766858Y-75199954D01*
X148605954Y-75360858D01*
X148475432Y-75547265D01*
X148475431Y-75547267D01*
X148379261Y-75753502D01*
X148379258Y-75753511D01*
X148320366Y-75973302D01*
X148320364Y-75973313D01*
X148300532Y-76199998D01*
X148300532Y-76200001D01*
X134229500Y-76200001D01*
X134229500Y-72644001D01*
X145252532Y-72644001D01*
X145272364Y-72870686D01*
X145272366Y-72870697D01*
X145331258Y-73090488D01*
X145331261Y-73090497D01*
X145427431Y-73296732D01*
X145427432Y-73296734D01*
X145557954Y-73483141D01*
X145718858Y-73644045D01*
X145718861Y-73644047D01*
X145905266Y-73774568D01*
X146111504Y-73870739D01*
X146111509Y-73870740D01*
X146111511Y-73870741D01*
X146164415Y-73884916D01*
X146331308Y-73929635D01*
X146493230Y-73943801D01*
X146557998Y-73949468D01*
X146558000Y-73949468D01*
X146558002Y-73949468D01*
X146614673Y-73944509D01*
X146784692Y-73929635D01*
X147004496Y-73870739D01*
X147210734Y-73774568D01*
X147397139Y-73644047D01*
X147558047Y-73483139D01*
X147688568Y-73296734D01*
X147784739Y-73090496D01*
X147843635Y-72870692D01*
X147863468Y-72644000D01*
X147860857Y-72614161D01*
X147857801Y-72579230D01*
X147843635Y-72417308D01*
X147784739Y-72197504D01*
X147688568Y-71991266D01*
X147558047Y-71804861D01*
X147558045Y-71804858D01*
X147397141Y-71643954D01*
X147338045Y-71602575D01*
X147294420Y-71547999D01*
X147287226Y-71478500D01*
X147318749Y-71416145D01*
X147338045Y-71399425D01*
X147374354Y-71374001D01*
X148300532Y-71374001D01*
X148320364Y-71600686D01*
X148320366Y-71600697D01*
X148379258Y-71820488D01*
X148379261Y-71820497D01*
X148475431Y-72026732D01*
X148475432Y-72026734D01*
X148605954Y-72213141D01*
X148766858Y-72374045D01*
X148812706Y-72406148D01*
X148953266Y-72504568D01*
X149159504Y-72600739D01*
X149159509Y-72600740D01*
X149159511Y-72600741D01*
X149179586Y-72606120D01*
X149379308Y-72659635D01*
X149541230Y-72673801D01*
X149605998Y-72679468D01*
X149606000Y-72679468D01*
X149606002Y-72679468D01*
X149662673Y-72674509D01*
X149832692Y-72659635D01*
X150052496Y-72600739D01*
X150258734Y-72504568D01*
X150445139Y-72374047D01*
X150606047Y-72213139D01*
X150736568Y-72026734D01*
X150832739Y-71820496D01*
X150891635Y-71600692D01*
X150911468Y-71374000D01*
X150909841Y-71355408D01*
X150899581Y-71238128D01*
X150891635Y-71147308D01*
X150832739Y-70927504D01*
X150736568Y-70721266D01*
X150606047Y-70534861D01*
X150606045Y-70534858D01*
X150445141Y-70373954D01*
X150258734Y-70243432D01*
X150258732Y-70243431D01*
X150052497Y-70147261D01*
X150052488Y-70147258D01*
X149832697Y-70088366D01*
X149832693Y-70088365D01*
X149832692Y-70088365D01*
X149832691Y-70088364D01*
X149832686Y-70088364D01*
X149606002Y-70068532D01*
X149605998Y-70068532D01*
X149379313Y-70088364D01*
X149379302Y-70088366D01*
X149159511Y-70147258D01*
X149159502Y-70147261D01*
X148953267Y-70243431D01*
X148953265Y-70243432D01*
X148766858Y-70373954D01*
X148605954Y-70534858D01*
X148475432Y-70721265D01*
X148475431Y-70721267D01*
X148379261Y-70927502D01*
X148379258Y-70927511D01*
X148320366Y-71147302D01*
X148320364Y-71147313D01*
X148300532Y-71373998D01*
X148300532Y-71374001D01*
X147374354Y-71374001D01*
X147397139Y-71358047D01*
X147558047Y-71197139D01*
X147688568Y-71010734D01*
X147784739Y-70804496D01*
X147843635Y-70584692D01*
X147863468Y-70358000D01*
X147843635Y-70131308D01*
X147784739Y-69911504D01*
X147688568Y-69705266D01*
X147558047Y-69518861D01*
X147558045Y-69518858D01*
X147397141Y-69357954D01*
X147210734Y-69227432D01*
X147210732Y-69227431D01*
X147004497Y-69131261D01*
X147004488Y-69131258D01*
X146784697Y-69072366D01*
X146784693Y-69072365D01*
X146784692Y-69072365D01*
X146784691Y-69072364D01*
X146784686Y-69072364D01*
X146558002Y-69052532D01*
X146557998Y-69052532D01*
X146331313Y-69072364D01*
X146331302Y-69072366D01*
X146111511Y-69131258D01*
X146111502Y-69131261D01*
X145905267Y-69227431D01*
X145905265Y-69227432D01*
X145718858Y-69357954D01*
X145557954Y-69518858D01*
X145427432Y-69705265D01*
X145427431Y-69705267D01*
X145331261Y-69911502D01*
X145331258Y-69911511D01*
X145272366Y-70131302D01*
X145272364Y-70131313D01*
X145252532Y-70357998D01*
X145252532Y-70358001D01*
X145272364Y-70584686D01*
X145272366Y-70584697D01*
X145331258Y-70804488D01*
X145331261Y-70804497D01*
X145427431Y-71010732D01*
X145427432Y-71010734D01*
X145557954Y-71197141D01*
X145718858Y-71358045D01*
X145777955Y-71399425D01*
X145821580Y-71454001D01*
X145828774Y-71523500D01*
X145797251Y-71585855D01*
X145777955Y-71602575D01*
X145718858Y-71643954D01*
X145557954Y-71804858D01*
X145427432Y-71991265D01*
X145427431Y-71991267D01*
X145331261Y-72197502D01*
X145331258Y-72197511D01*
X145272366Y-72417302D01*
X145272364Y-72417313D01*
X145252532Y-72643998D01*
X145252532Y-72644001D01*
X134229500Y-72644001D01*
X134229500Y-66040001D01*
X148300532Y-66040001D01*
X148320364Y-66266686D01*
X148320366Y-66266697D01*
X148379258Y-66486488D01*
X148379261Y-66486497D01*
X148475431Y-66692732D01*
X148475432Y-66692734D01*
X148605954Y-66879141D01*
X148766858Y-67040045D01*
X148766861Y-67040047D01*
X148953266Y-67170568D01*
X149159504Y-67266739D01*
X149379308Y-67325635D01*
X149541230Y-67339801D01*
X149605998Y-67345468D01*
X149606000Y-67345468D01*
X149606002Y-67345468D01*
X149662673Y-67340509D01*
X149832692Y-67325635D01*
X150052496Y-67266739D01*
X150258734Y-67170568D01*
X150445139Y-67040047D01*
X150606047Y-66879139D01*
X150736568Y-66692734D01*
X150832739Y-66486496D01*
X150891635Y-66266692D01*
X150911468Y-66040000D01*
X150891635Y-65813308D01*
X150832739Y-65593504D01*
X150736568Y-65387266D01*
X150606047Y-65200861D01*
X150606045Y-65200858D01*
X150445141Y-65039954D01*
X150258734Y-64909432D01*
X150258732Y-64909431D01*
X150052497Y-64813261D01*
X150052488Y-64813258D01*
X149832697Y-64754366D01*
X149832693Y-64754365D01*
X149832692Y-64754365D01*
X149832691Y-64754364D01*
X149832686Y-64754364D01*
X149606002Y-64734532D01*
X149605998Y-64734532D01*
X149379313Y-64754364D01*
X149379302Y-64754366D01*
X149159511Y-64813258D01*
X149159502Y-64813261D01*
X148953267Y-64909431D01*
X148953265Y-64909432D01*
X148766858Y-65039954D01*
X148605954Y-65200858D01*
X148475432Y-65387265D01*
X148475431Y-65387267D01*
X148379261Y-65593502D01*
X148379258Y-65593511D01*
X148320366Y-65813302D01*
X148320364Y-65813313D01*
X148300532Y-66039998D01*
X148300532Y-66040001D01*
X134229500Y-66040001D01*
X134229500Y-60198001D01*
X145252532Y-60198001D01*
X145272364Y-60424686D01*
X145272366Y-60424697D01*
X145331258Y-60644488D01*
X145331261Y-60644497D01*
X145427431Y-60850732D01*
X145427432Y-60850734D01*
X145557954Y-61037141D01*
X145718858Y-61198045D01*
X145718861Y-61198047D01*
X145905266Y-61328568D01*
X146111504Y-61424739D01*
X146331308Y-61483635D01*
X146493230Y-61497801D01*
X146557998Y-61503468D01*
X146558000Y-61503468D01*
X146558002Y-61503468D01*
X146614673Y-61498509D01*
X146784692Y-61483635D01*
X147004496Y-61424739D01*
X147210734Y-61328568D01*
X147397139Y-61198047D01*
X147558047Y-61037139D01*
X147688568Y-60850734D01*
X147784739Y-60644496D01*
X147836318Y-60452001D01*
X148300532Y-60452001D01*
X148320364Y-60678686D01*
X148320366Y-60678697D01*
X148379258Y-60898488D01*
X148379261Y-60898497D01*
X148475431Y-61104732D01*
X148475432Y-61104734D01*
X148605954Y-61291141D01*
X148766858Y-61452045D01*
X148766861Y-61452047D01*
X148953266Y-61582568D01*
X149159504Y-61678739D01*
X149379308Y-61737635D01*
X149541230Y-61751801D01*
X149605998Y-61757468D01*
X149606000Y-61757468D01*
X149606002Y-61757468D01*
X149662673Y-61752509D01*
X149832692Y-61737635D01*
X150052496Y-61678739D01*
X150258734Y-61582568D01*
X150445139Y-61452047D01*
X150606047Y-61291139D01*
X150736568Y-61104734D01*
X150832739Y-60898496D01*
X150891635Y-60678692D01*
X150911468Y-60452000D01*
X150891635Y-60225308D01*
X150832739Y-60005504D01*
X150736568Y-59799266D01*
X150616330Y-59627547D01*
X150606045Y-59612858D01*
X150445141Y-59451954D01*
X150258734Y-59321432D01*
X150258732Y-59321431D01*
X150052497Y-59225261D01*
X150052488Y-59225258D01*
X149832697Y-59166366D01*
X149832693Y-59166365D01*
X149832692Y-59166365D01*
X149832691Y-59166364D01*
X149832686Y-59166364D01*
X149606002Y-59146532D01*
X149605998Y-59146532D01*
X149379313Y-59166364D01*
X149379302Y-59166366D01*
X149159511Y-59225258D01*
X149159502Y-59225261D01*
X148953267Y-59321431D01*
X148953265Y-59321432D01*
X148766858Y-59451954D01*
X148605954Y-59612858D01*
X148475432Y-59799265D01*
X148475431Y-59799267D01*
X148379261Y-60005502D01*
X148379258Y-60005511D01*
X148320366Y-60225302D01*
X148320364Y-60225313D01*
X148300532Y-60451998D01*
X148300532Y-60452001D01*
X147836318Y-60452001D01*
X147843635Y-60424692D01*
X147863468Y-60198000D01*
X147843635Y-59971308D01*
X147788112Y-59764091D01*
X147784741Y-59751511D01*
X147784738Y-59751502D01*
X147767154Y-59713793D01*
X147688568Y-59545266D01*
X147590839Y-59405693D01*
X147558045Y-59358858D01*
X147397141Y-59197954D01*
X147338045Y-59156575D01*
X147294420Y-59101999D01*
X147287226Y-59032500D01*
X147318749Y-58970145D01*
X147338045Y-58953425D01*
X147358261Y-58939269D01*
X147397139Y-58912047D01*
X147558047Y-58751139D01*
X147688568Y-58564734D01*
X147784739Y-58358496D01*
X147843635Y-58138692D01*
X147863468Y-57912000D01*
X147843635Y-57685308D01*
X147784739Y-57465504D01*
X147688568Y-57259266D01*
X147558047Y-57072861D01*
X147558045Y-57072858D01*
X147397141Y-56911954D01*
X147210734Y-56781432D01*
X147210732Y-56781431D01*
X147004497Y-56685261D01*
X147004488Y-56685258D01*
X146843048Y-56642001D01*
X148300532Y-56642001D01*
X148320364Y-56868686D01*
X148320366Y-56868697D01*
X148379258Y-57088488D01*
X148379261Y-57088497D01*
X148475431Y-57294732D01*
X148475432Y-57294734D01*
X148605954Y-57481141D01*
X148766858Y-57642045D01*
X148766861Y-57642047D01*
X148953266Y-57772568D01*
X149159504Y-57868739D01*
X149379308Y-57927635D01*
X149541230Y-57941801D01*
X149605998Y-57947468D01*
X149606000Y-57947468D01*
X149606002Y-57947468D01*
X149662673Y-57942509D01*
X149832692Y-57927635D01*
X150052496Y-57868739D01*
X150258734Y-57772568D01*
X150445139Y-57642047D01*
X150606047Y-57481139D01*
X150736568Y-57294734D01*
X150832739Y-57088496D01*
X150891635Y-56868692D01*
X150911468Y-56642000D01*
X150891635Y-56415308D01*
X150832739Y-56195504D01*
X150736568Y-55989266D01*
X150606602Y-55803654D01*
X150606045Y-55802858D01*
X150445141Y-55641954D01*
X150258734Y-55511432D01*
X150258732Y-55511431D01*
X150052497Y-55415261D01*
X150052488Y-55415258D01*
X149832697Y-55356366D01*
X149832693Y-55356365D01*
X149832692Y-55356365D01*
X149832691Y-55356364D01*
X149832686Y-55356364D01*
X149606002Y-55336532D01*
X149605998Y-55336532D01*
X149379313Y-55356364D01*
X149379302Y-55356366D01*
X149159511Y-55415258D01*
X149159502Y-55415261D01*
X148953267Y-55511431D01*
X148953265Y-55511432D01*
X148766858Y-55641954D01*
X148605954Y-55802858D01*
X148475432Y-55989265D01*
X148475431Y-55989267D01*
X148379261Y-56195502D01*
X148379258Y-56195511D01*
X148320366Y-56415302D01*
X148320364Y-56415313D01*
X148300532Y-56641998D01*
X148300532Y-56642001D01*
X146843048Y-56642001D01*
X146784697Y-56626366D01*
X146784693Y-56626365D01*
X146784692Y-56626365D01*
X146784691Y-56626364D01*
X146784686Y-56626364D01*
X146558002Y-56606532D01*
X146557998Y-56606532D01*
X146331313Y-56626364D01*
X146331302Y-56626366D01*
X146111511Y-56685258D01*
X146111502Y-56685261D01*
X145905267Y-56781431D01*
X145905265Y-56781432D01*
X145718858Y-56911954D01*
X145557954Y-57072858D01*
X145427432Y-57259265D01*
X145427431Y-57259267D01*
X145331261Y-57465502D01*
X145331258Y-57465511D01*
X145272366Y-57685302D01*
X145272364Y-57685313D01*
X145252532Y-57911998D01*
X145252532Y-57912001D01*
X145272364Y-58138686D01*
X145272366Y-58138697D01*
X145331258Y-58358488D01*
X145331261Y-58358497D01*
X145427431Y-58564732D01*
X145427432Y-58564734D01*
X145557954Y-58751141D01*
X145718858Y-58912045D01*
X145777955Y-58953425D01*
X145821580Y-59008001D01*
X145828774Y-59077500D01*
X145797251Y-59139855D01*
X145777955Y-59156575D01*
X145718858Y-59197954D01*
X145557954Y-59358858D01*
X145427432Y-59545265D01*
X145427431Y-59545267D01*
X145331261Y-59751502D01*
X145331258Y-59751511D01*
X145272366Y-59971302D01*
X145272364Y-59971313D01*
X145252532Y-60197998D01*
X145252532Y-60198001D01*
X134229500Y-60198001D01*
X134229500Y-55936451D01*
X134249185Y-55869412D01*
X134265815Y-55848774D01*
X134926353Y-55188235D01*
X134987674Y-55154752D01*
X135046125Y-55156143D01*
X135080780Y-55165428D01*
X135146592Y-55183063D01*
X135334918Y-55199539D01*
X135381999Y-55203659D01*
X135382000Y-55203659D01*
X135382001Y-55203659D01*
X135421234Y-55200226D01*
X135617408Y-55183063D01*
X135845663Y-55121903D01*
X136059830Y-55022035D01*
X136253401Y-54886495D01*
X136420495Y-54719401D01*
X136556035Y-54525830D01*
X136655903Y-54311663D01*
X136717063Y-54083408D01*
X136737659Y-53848000D01*
X136717063Y-53612592D01*
X136655903Y-53384337D01*
X136556035Y-53170171D01*
X136530007Y-53132998D01*
X136420494Y-52976597D01*
X136253402Y-52809506D01*
X136253396Y-52809501D01*
X136067842Y-52679575D01*
X136024217Y-52624998D01*
X136017023Y-52555500D01*
X136048546Y-52493145D01*
X136067842Y-52476425D01*
X136090026Y-52460891D01*
X136253401Y-52346495D01*
X136420495Y-52179401D01*
X136556035Y-51985830D01*
X136655903Y-51771663D01*
X136717063Y-51543408D01*
X136727012Y-51429692D01*
X136752465Y-51364624D01*
X136809056Y-51323645D01*
X136850540Y-51316500D01*
X148485863Y-51316500D01*
X148552902Y-51336185D01*
X148598657Y-51388989D01*
X148608601Y-51458147D01*
X148605638Y-51472593D01*
X148574366Y-51589302D01*
X148574364Y-51589313D01*
X148554532Y-51815998D01*
X148554532Y-51816001D01*
X148574364Y-52042686D01*
X148574366Y-52042697D01*
X148633258Y-52262488D01*
X148633261Y-52262497D01*
X148729431Y-52468732D01*
X148729432Y-52468734D01*
X148859954Y-52655141D01*
X149020858Y-52816045D01*
X149020861Y-52816047D01*
X149207266Y-52946568D01*
X149413504Y-53042739D01*
X149633308Y-53101635D01*
X149790791Y-53115413D01*
X149859998Y-53121468D01*
X149860000Y-53121468D01*
X149860002Y-53121468D01*
X149916673Y-53116509D01*
X150086692Y-53101635D01*
X150155048Y-53083319D01*
X150224897Y-53084982D01*
X150274822Y-53115413D01*
X151571637Y-54412228D01*
X152794800Y-55635390D01*
X152828285Y-55696713D01*
X152823301Y-55766405D01*
X152781429Y-55822338D01*
X152757557Y-55836349D01*
X152709270Y-55857849D01*
X152709268Y-55857849D01*
X152709264Y-55857852D01*
X152556129Y-55969111D01*
X152429466Y-56109785D01*
X152334821Y-56273715D01*
X152334818Y-56273722D01*
X152283279Y-56432344D01*
X152276326Y-56453744D01*
X152256540Y-56642000D01*
X152276326Y-56830256D01*
X152276327Y-56830259D01*
X152334818Y-57010277D01*
X152334821Y-57010284D01*
X152429467Y-57174216D01*
X152463895Y-57212452D01*
X152504650Y-57257715D01*
X152534880Y-57320706D01*
X152536500Y-57340687D01*
X152536500Y-61639255D01*
X152534775Y-61654872D01*
X152535061Y-61654899D01*
X152534326Y-61662665D01*
X152536500Y-61731814D01*
X152536500Y-61761343D01*
X152536501Y-61761360D01*
X152537368Y-61768231D01*
X152537826Y-61774050D01*
X152539290Y-61820624D01*
X152539291Y-61820627D01*
X152544880Y-61839867D01*
X152548824Y-61858911D01*
X152551336Y-61878791D01*
X152568490Y-61922119D01*
X152570382Y-61927647D01*
X152583381Y-61972388D01*
X152593580Y-61989634D01*
X152602138Y-62007103D01*
X152609514Y-62025732D01*
X152636898Y-62063423D01*
X152640106Y-62068307D01*
X152663827Y-62108416D01*
X152663833Y-62108424D01*
X152677990Y-62122580D01*
X152690628Y-62137376D01*
X152702405Y-62153586D01*
X152702406Y-62153587D01*
X152738309Y-62183288D01*
X152742620Y-62187210D01*
X160684434Y-70129025D01*
X160717919Y-70190347D01*
X160712935Y-70260039D01*
X160671063Y-70315972D01*
X160605599Y-70340389D01*
X160537326Y-70325537D01*
X160525631Y-70318281D01*
X160422734Y-70246233D01*
X160418734Y-70243432D01*
X160304894Y-70190347D01*
X160212497Y-70147261D01*
X160212488Y-70147258D01*
X159992697Y-70088366D01*
X159992693Y-70088365D01*
X159992692Y-70088365D01*
X159992691Y-70088364D01*
X159992686Y-70088364D01*
X159766002Y-70068532D01*
X159765998Y-70068532D01*
X159539313Y-70088364D01*
X159539302Y-70088366D01*
X159319511Y-70147258D01*
X159319502Y-70147261D01*
X159113267Y-70243431D01*
X159113265Y-70243432D01*
X158926858Y-70373954D01*
X158765954Y-70534858D01*
X158635432Y-70721265D01*
X158635431Y-70721267D01*
X158539261Y-70927502D01*
X158539258Y-70927511D01*
X158480366Y-71147302D01*
X158480364Y-71147313D01*
X158460532Y-71373998D01*
X158460532Y-71374001D01*
X158480364Y-71600686D01*
X158480366Y-71600697D01*
X158539258Y-71820488D01*
X158539261Y-71820497D01*
X158635431Y-72026732D01*
X158635432Y-72026734D01*
X158765954Y-72213141D01*
X158926858Y-72374045D01*
X158972706Y-72406148D01*
X159113266Y-72504568D01*
X159319504Y-72600739D01*
X159319509Y-72600740D01*
X159319511Y-72600741D01*
X159339586Y-72606120D01*
X159539308Y-72659635D01*
X159701230Y-72673801D01*
X159765998Y-72679468D01*
X159766000Y-72679468D01*
X159766002Y-72679468D01*
X159822673Y-72674509D01*
X159992692Y-72659635D01*
X160212496Y-72600739D01*
X160418734Y-72504568D01*
X160605139Y-72374047D01*
X160766047Y-72213139D01*
X160896568Y-72026734D01*
X160992739Y-71820496D01*
X161051635Y-71600692D01*
X161071468Y-71374000D01*
X161069841Y-71355408D01*
X161059581Y-71238128D01*
X161051635Y-71147308D01*
X160992739Y-70927504D01*
X160896568Y-70721266D01*
X160821719Y-70614369D01*
X160799391Y-70548162D01*
X160816403Y-70480395D01*
X160867351Y-70432583D01*
X160936061Y-70419905D01*
X161000717Y-70446387D01*
X161010969Y-70455560D01*
X164182986Y-73627577D01*
X167139197Y-76583788D01*
X167149022Y-76596051D01*
X167149243Y-76595869D01*
X167154214Y-76601878D01*
X167180217Y-76626295D01*
X167204635Y-76649226D01*
X167225529Y-76670120D01*
X167231011Y-76674373D01*
X167235443Y-76678157D01*
X167269418Y-76710062D01*
X167286976Y-76719714D01*
X167303233Y-76730393D01*
X167319064Y-76742673D01*
X167338737Y-76751186D01*
X167361833Y-76761182D01*
X167367077Y-76763750D01*
X167407908Y-76786197D01*
X167420523Y-76789435D01*
X167427305Y-76791177D01*
X167445719Y-76797481D01*
X167464104Y-76805438D01*
X167510157Y-76812732D01*
X167515826Y-76813906D01*
X167560981Y-76825500D01*
X167581016Y-76825500D01*
X167600413Y-76827026D01*
X167620196Y-76830160D01*
X167666584Y-76825775D01*
X167672422Y-76825500D01*
X173984773Y-76825500D01*
X174051812Y-76845185D01*
X174086348Y-76878377D01*
X174221501Y-77071396D01*
X174221506Y-77071402D01*
X174388597Y-77238493D01*
X174388603Y-77238498D01*
X174574158Y-77368425D01*
X174617783Y-77423002D01*
X174624977Y-77492500D01*
X174593454Y-77554855D01*
X174574158Y-77571575D01*
X174388597Y-77701505D01*
X174221505Y-77868597D01*
X174085965Y-78062169D01*
X174085964Y-78062171D01*
X173986098Y-78276335D01*
X173986094Y-78276344D01*
X173924938Y-78504586D01*
X173924936Y-78504596D01*
X173904341Y-78739999D01*
X173904341Y-78740000D01*
X173924936Y-78975403D01*
X173924938Y-78975413D01*
X173986094Y-79203655D01*
X173986096Y-79203659D01*
X173986097Y-79203663D01*
X174083380Y-79412286D01*
X174085965Y-79417830D01*
X174085967Y-79417834D01*
X174221501Y-79611395D01*
X174221506Y-79611402D01*
X174388597Y-79778493D01*
X174388603Y-79778498D01*
X174574158Y-79908425D01*
X174617783Y-79963002D01*
X174624977Y-80032500D01*
X174593454Y-80094855D01*
X174574158Y-80111575D01*
X174388597Y-80241505D01*
X174221505Y-80408597D01*
X174085965Y-80602169D01*
X174085964Y-80602171D01*
X173986098Y-80816335D01*
X173986094Y-80816344D01*
X173924938Y-81044586D01*
X173924936Y-81044596D01*
X173904341Y-81279999D01*
X173904341Y-81280000D01*
X173924936Y-81515403D01*
X173924938Y-81515413D01*
X173986094Y-81743655D01*
X173986096Y-81743659D01*
X173986097Y-81743663D01*
X174060196Y-81902568D01*
X174085965Y-81957830D01*
X174085967Y-81957834D01*
X174194281Y-82112521D01*
X174221410Y-82151266D01*
X174221501Y-82151395D01*
X174221506Y-82151402D01*
X174388597Y-82318493D01*
X174388603Y-82318498D01*
X174574158Y-82448425D01*
X174617783Y-82503002D01*
X174624977Y-82572500D01*
X174593454Y-82634855D01*
X174574158Y-82651575D01*
X174388597Y-82781505D01*
X174221505Y-82948597D01*
X174085965Y-83142169D01*
X174085964Y-83142171D01*
X173986098Y-83356335D01*
X173986094Y-83356344D01*
X173924938Y-83584586D01*
X173924936Y-83584596D01*
X173904341Y-83819999D01*
X173904341Y-83820000D01*
X173924936Y-84055403D01*
X173924938Y-84055413D01*
X173986094Y-84283655D01*
X173986096Y-84283659D01*
X173986097Y-84283663D01*
X174057724Y-84437267D01*
X174085965Y-84497830D01*
X174085967Y-84497834D01*
X174221501Y-84691395D01*
X174221506Y-84691402D01*
X174388597Y-84858493D01*
X174388603Y-84858498D01*
X174574158Y-84988425D01*
X174617783Y-85043002D01*
X174624977Y-85112500D01*
X174593454Y-85174855D01*
X174574158Y-85191575D01*
X174388597Y-85321505D01*
X174221505Y-85488597D01*
X174085965Y-85682169D01*
X174085964Y-85682171D01*
X173986098Y-85896335D01*
X173986094Y-85896344D01*
X173924938Y-86124586D01*
X173924936Y-86124596D01*
X173904341Y-86359999D01*
X173904341Y-86360000D01*
X173924936Y-86595403D01*
X173924938Y-86595413D01*
X173986094Y-86823655D01*
X173986096Y-86823659D01*
X173986097Y-86823663D01*
X174085965Y-87037830D01*
X174085967Y-87037834D01*
X174221501Y-87231395D01*
X174221506Y-87231402D01*
X174388597Y-87398493D01*
X174388603Y-87398498D01*
X174574158Y-87528425D01*
X174617783Y-87583002D01*
X174624977Y-87652500D01*
X174593454Y-87714855D01*
X174574158Y-87731575D01*
X174388597Y-87861505D01*
X174221505Y-88028597D01*
X174085965Y-88222169D01*
X174085964Y-88222171D01*
X173986098Y-88436335D01*
X173986094Y-88436344D01*
X173924938Y-88664586D01*
X173924936Y-88664596D01*
X173904341Y-88899999D01*
X173904341Y-88900000D01*
X173924936Y-89135403D01*
X173924938Y-89135413D01*
X173986094Y-89363655D01*
X173986096Y-89363659D01*
X173986097Y-89363663D01*
X174035451Y-89469502D01*
X174085965Y-89577830D01*
X174085967Y-89577834D01*
X174221501Y-89771395D01*
X174221506Y-89771402D01*
X174388597Y-89938493D01*
X174388603Y-89938498D01*
X174574158Y-90068425D01*
X174617783Y-90123002D01*
X174624977Y-90192500D01*
X174593454Y-90254855D01*
X174574158Y-90271575D01*
X174388597Y-90401505D01*
X174221505Y-90568597D01*
X174085965Y-90762169D01*
X174085964Y-90762171D01*
X173986098Y-90976335D01*
X173986094Y-90976344D01*
X173924938Y-91204586D01*
X173924936Y-91204596D01*
X173904341Y-91439999D01*
X173904341Y-91440000D01*
X173924936Y-91675403D01*
X173924938Y-91675413D01*
X173986094Y-91903655D01*
X173986096Y-91903659D01*
X173986097Y-91903663D01*
X174085965Y-92117830D01*
X174085967Y-92117834D01*
X174194281Y-92272521D01*
X174221501Y-92311396D01*
X174221506Y-92311402D01*
X174343430Y-92433326D01*
X174376915Y-92494649D01*
X174371931Y-92564341D01*
X174330059Y-92620274D01*
X174299083Y-92637189D01*
X174167669Y-92686203D01*
X174167664Y-92686206D01*
X174052455Y-92772452D01*
X174052452Y-92772455D01*
X173966206Y-92887664D01*
X173966202Y-92887671D01*
X173915908Y-93022517D01*
X173909501Y-93082116D01*
X173909501Y-93082123D01*
X173909500Y-93082135D01*
X173909500Y-94877870D01*
X173909501Y-94877876D01*
X173915908Y-94937483D01*
X173966202Y-95072328D01*
X173966206Y-95072335D01*
X174052452Y-95187544D01*
X174052455Y-95187547D01*
X174167664Y-95273793D01*
X174167671Y-95273797D01*
X174302517Y-95324091D01*
X174302516Y-95324091D01*
X174309444Y-95324835D01*
X174362127Y-95330500D01*
X176157872Y-95330499D01*
X176217483Y-95324091D01*
X176352331Y-95273796D01*
X176467546Y-95187546D01*
X176553796Y-95072331D01*
X176604091Y-94937483D01*
X176610500Y-94877873D01*
X176610499Y-93082128D01*
X176604091Y-93022517D01*
X176553796Y-92887669D01*
X176553795Y-92887668D01*
X176553793Y-92887664D01*
X176467547Y-92772455D01*
X176467544Y-92772452D01*
X176352335Y-92686206D01*
X176352328Y-92686202D01*
X176220917Y-92637189D01*
X176164983Y-92595318D01*
X176140566Y-92529853D01*
X176155418Y-92461580D01*
X176176563Y-92433332D01*
X176298495Y-92311401D01*
X176434035Y-92117830D01*
X176533903Y-91903663D01*
X176595063Y-91675408D01*
X176615659Y-91440000D01*
X176595063Y-91204592D01*
X176533903Y-90976337D01*
X176434035Y-90762171D01*
X176429112Y-90755139D01*
X176298494Y-90568597D01*
X176131402Y-90401506D01*
X176131396Y-90401501D01*
X175945842Y-90271575D01*
X175902217Y-90216998D01*
X175895023Y-90147500D01*
X175926546Y-90085145D01*
X175945842Y-90068425D01*
X175968026Y-90052891D01*
X176131401Y-89938495D01*
X176298495Y-89771401D01*
X176434035Y-89577830D01*
X176533903Y-89363663D01*
X176595063Y-89135408D01*
X176615659Y-88900000D01*
X176595063Y-88664592D01*
X176533903Y-88436337D01*
X176434035Y-88222171D01*
X176298495Y-88028599D01*
X176298494Y-88028597D01*
X176131402Y-87861506D01*
X176131396Y-87861501D01*
X175945842Y-87731575D01*
X175902217Y-87676998D01*
X175895023Y-87607500D01*
X175926546Y-87545145D01*
X175945842Y-87528425D01*
X175968026Y-87512891D01*
X176131401Y-87398495D01*
X176298495Y-87231401D01*
X176434035Y-87037830D01*
X176533903Y-86823663D01*
X176595063Y-86595408D01*
X176615659Y-86360000D01*
X176595063Y-86124592D01*
X176533903Y-85896337D01*
X176434035Y-85682171D01*
X176336677Y-85543128D01*
X176298494Y-85488597D01*
X176131402Y-85321506D01*
X176131396Y-85321501D01*
X175945842Y-85191575D01*
X175902217Y-85136998D01*
X175895023Y-85067500D01*
X175926546Y-85005145D01*
X175945842Y-84988425D01*
X176124527Y-84863308D01*
X176131401Y-84858495D01*
X176298495Y-84691401D01*
X176434035Y-84497830D01*
X176533903Y-84283663D01*
X176595063Y-84055408D01*
X176615659Y-83820000D01*
X176595063Y-83584592D01*
X176533903Y-83356337D01*
X176434035Y-83142171D01*
X176430426Y-83137016D01*
X176298494Y-82948597D01*
X176131402Y-82781506D01*
X176131396Y-82781501D01*
X175945842Y-82651575D01*
X175902217Y-82596998D01*
X175895023Y-82527500D01*
X175926546Y-82465145D01*
X175945842Y-82448425D01*
X175968026Y-82432891D01*
X176131401Y-82318495D01*
X176298495Y-82151401D01*
X176434035Y-81957830D01*
X176533903Y-81743663D01*
X176595063Y-81515408D01*
X176615659Y-81280000D01*
X176595063Y-81044592D01*
X176533903Y-80816337D01*
X176434035Y-80602171D01*
X176394220Y-80545308D01*
X176298494Y-80408597D01*
X176131402Y-80241506D01*
X176131396Y-80241501D01*
X175945842Y-80111575D01*
X175902217Y-80056998D01*
X175895023Y-79987500D01*
X175926546Y-79925145D01*
X175945842Y-79908425D01*
X175968026Y-79892891D01*
X176131401Y-79778495D01*
X176298495Y-79611401D01*
X176434035Y-79417830D01*
X176533903Y-79203663D01*
X176595063Y-78975408D01*
X176615659Y-78740000D01*
X176595063Y-78504592D01*
X176533903Y-78276337D01*
X176434035Y-78062171D01*
X176298495Y-77868599D01*
X176298494Y-77868597D01*
X176131402Y-77701506D01*
X176131396Y-77701501D01*
X175945842Y-77571575D01*
X175902217Y-77516998D01*
X175895023Y-77447500D01*
X175926546Y-77385145D01*
X175945842Y-77368425D01*
X175999909Y-77330567D01*
X176131401Y-77238495D01*
X176298495Y-77071401D01*
X176434035Y-76877830D01*
X176533903Y-76663663D01*
X176595063Y-76435408D01*
X176615659Y-76200000D01*
X176595063Y-75964592D01*
X176533903Y-75736337D01*
X176434035Y-75522171D01*
X176433652Y-75521623D01*
X176298494Y-75328597D01*
X176131402Y-75161506D01*
X176131395Y-75161501D01*
X175937834Y-75025967D01*
X175937830Y-75025965D01*
X175937828Y-75025964D01*
X175723663Y-74926097D01*
X175723659Y-74926096D01*
X175723655Y-74926094D01*
X175495413Y-74864938D01*
X175495403Y-74864936D01*
X175260001Y-74844341D01*
X175259999Y-74844341D01*
X175024596Y-74864936D01*
X175024586Y-74864938D01*
X174796344Y-74926094D01*
X174796335Y-74926098D01*
X174582171Y-75025964D01*
X174582169Y-75025965D01*
X174388597Y-75161505D01*
X174221505Y-75328597D01*
X174086348Y-75521623D01*
X174031771Y-75565248D01*
X173984773Y-75574500D01*
X167950452Y-75574500D01*
X167883413Y-75554815D01*
X167862771Y-75538181D01*
X159865810Y-67541219D01*
X159832325Y-67479896D01*
X159837309Y-67410204D01*
X159879181Y-67354271D01*
X159942683Y-67330010D01*
X159992692Y-67325635D01*
X160212496Y-67266739D01*
X160418734Y-67170568D01*
X160605139Y-67040047D01*
X160766047Y-66879139D01*
X160896568Y-66692734D01*
X160992739Y-66486496D01*
X161051635Y-66266692D01*
X161071468Y-66040000D01*
X161051635Y-65813308D01*
X160992739Y-65593504D01*
X160896568Y-65387266D01*
X160766047Y-65200861D01*
X160766045Y-65200858D01*
X160605141Y-65039954D01*
X160418734Y-64909432D01*
X160418732Y-64909431D01*
X160212497Y-64813261D01*
X160212488Y-64813258D01*
X159992697Y-64754366D01*
X159992693Y-64754365D01*
X159992692Y-64754365D01*
X159992691Y-64754364D01*
X159992686Y-64754364D01*
X159766002Y-64734532D01*
X159765998Y-64734532D01*
X159539313Y-64754364D01*
X159539302Y-64754366D01*
X159319511Y-64813258D01*
X159319502Y-64813261D01*
X159113267Y-64909431D01*
X159113265Y-64909432D01*
X158926858Y-65039954D01*
X158765954Y-65200858D01*
X158635432Y-65387265D01*
X158635431Y-65387267D01*
X158539261Y-65593502D01*
X158539258Y-65593511D01*
X158480366Y-65813302D01*
X158480364Y-65813311D01*
X158475989Y-65863318D01*
X158450535Y-65928386D01*
X158393944Y-65969363D01*
X158324182Y-65973240D01*
X158264780Y-65940189D01*
X153823819Y-61499228D01*
X153790334Y-61437905D01*
X153787500Y-61411547D01*
X153787500Y-59504452D01*
X153807185Y-59437413D01*
X153859989Y-59391658D01*
X153929147Y-59381714D01*
X153992703Y-59410739D01*
X153999180Y-59416770D01*
X156235354Y-61652945D01*
X158466197Y-63883788D01*
X158476022Y-63896051D01*
X158476243Y-63895869D01*
X158481214Y-63901878D01*
X158507217Y-63926295D01*
X158531635Y-63949226D01*
X158552529Y-63970120D01*
X158558011Y-63974373D01*
X158562443Y-63978157D01*
X158596418Y-64010062D01*
X158613976Y-64019714D01*
X158630233Y-64030393D01*
X158646064Y-64042673D01*
X158665737Y-64051186D01*
X158688833Y-64061182D01*
X158694077Y-64063750D01*
X158734908Y-64086197D01*
X158747523Y-64089435D01*
X158754305Y-64091177D01*
X158772719Y-64097481D01*
X158791104Y-64105438D01*
X158837157Y-64112732D01*
X158842826Y-64113906D01*
X158887981Y-64125500D01*
X158908016Y-64125500D01*
X158927413Y-64127026D01*
X158947196Y-64130160D01*
X158993584Y-64125775D01*
X158999422Y-64125500D01*
X161233548Y-64125500D01*
X161300587Y-64145185D01*
X161321228Y-64161818D01*
X165507909Y-68348500D01*
X169679197Y-72519788D01*
X169689022Y-72532051D01*
X169689243Y-72531869D01*
X169694214Y-72537878D01*
X169720217Y-72562295D01*
X169744635Y-72585226D01*
X169765529Y-72606120D01*
X169771011Y-72610373D01*
X169775443Y-72614157D01*
X169809418Y-72646062D01*
X169826976Y-72655714D01*
X169843235Y-72666395D01*
X169859064Y-72678673D01*
X169901838Y-72697182D01*
X169907056Y-72699738D01*
X169947908Y-72722197D01*
X169967316Y-72727180D01*
X169985717Y-72733480D01*
X170004104Y-72741437D01*
X170047488Y-72748308D01*
X170050119Y-72748725D01*
X170055839Y-72749909D01*
X170100981Y-72761500D01*
X170121016Y-72761500D01*
X170140414Y-72763026D01*
X170160194Y-72766159D01*
X170160195Y-72766160D01*
X170160195Y-72766159D01*
X170160196Y-72766160D01*
X170206584Y-72761775D01*
X170212422Y-72761500D01*
X173785501Y-72761500D01*
X173852540Y-72781185D01*
X173898295Y-72833989D01*
X173909501Y-72885500D01*
X173909501Y-73033876D01*
X173915908Y-73093483D01*
X173966202Y-73228328D01*
X173966206Y-73228335D01*
X174052452Y-73343544D01*
X174052455Y-73343547D01*
X174167664Y-73429793D01*
X174167671Y-73429797D01*
X174302517Y-73480091D01*
X174302516Y-73480091D01*
X174309444Y-73480835D01*
X174362127Y-73486500D01*
X176157872Y-73486499D01*
X176217483Y-73480091D01*
X176352331Y-73429796D01*
X176467546Y-73343546D01*
X176553796Y-73228331D01*
X176604091Y-73093483D01*
X176610500Y-73033873D01*
X176610499Y-71238128D01*
X176604091Y-71178517D01*
X176582265Y-71119999D01*
X176553797Y-71043671D01*
X176553793Y-71043664D01*
X176467547Y-70928455D01*
X176467544Y-70928452D01*
X176352335Y-70842206D01*
X176352328Y-70842202D01*
X176220917Y-70793189D01*
X176164983Y-70751318D01*
X176140566Y-70685853D01*
X176155418Y-70617580D01*
X176176563Y-70589332D01*
X176298495Y-70467401D01*
X176434035Y-70273830D01*
X176533903Y-70059663D01*
X176595063Y-69831408D01*
X176615659Y-69596000D01*
X176595063Y-69360592D01*
X176533903Y-69132337D01*
X176434035Y-68918171D01*
X176433652Y-68917623D01*
X176298494Y-68724597D01*
X176131402Y-68557506D01*
X176131396Y-68557501D01*
X175945842Y-68427575D01*
X175902217Y-68372998D01*
X175895023Y-68303500D01*
X175926546Y-68241145D01*
X175945842Y-68224425D01*
X176044922Y-68155048D01*
X176131401Y-68094495D01*
X176298495Y-67927401D01*
X176434035Y-67733830D01*
X176533903Y-67519663D01*
X176595063Y-67291408D01*
X176615659Y-67056000D01*
X176595063Y-66820592D01*
X176533903Y-66592337D01*
X176434035Y-66378171D01*
X176362084Y-66275413D01*
X176298494Y-66184597D01*
X176131402Y-66017506D01*
X176131396Y-66017501D01*
X175945842Y-65887575D01*
X175902217Y-65832998D01*
X175895023Y-65763500D01*
X175926546Y-65701145D01*
X175945842Y-65684425D01*
X176100210Y-65576335D01*
X176131401Y-65554495D01*
X176298495Y-65387401D01*
X176434035Y-65193830D01*
X176533903Y-64979663D01*
X176595063Y-64751408D01*
X176615659Y-64516000D01*
X176595063Y-64280592D01*
X176533903Y-64052337D01*
X176434035Y-63838171D01*
X176362084Y-63735413D01*
X176298494Y-63644597D01*
X176131402Y-63477506D01*
X176131396Y-63477501D01*
X175945842Y-63347575D01*
X175902217Y-63292998D01*
X175895023Y-63223500D01*
X175926546Y-63161145D01*
X175945842Y-63144425D01*
X175986134Y-63116212D01*
X176131401Y-63014495D01*
X176298495Y-62847401D01*
X176434035Y-62653830D01*
X176533903Y-62439663D01*
X176595063Y-62211408D01*
X176615659Y-61976000D01*
X176595063Y-61740592D01*
X176533903Y-61512337D01*
X176434035Y-61298171D01*
X176429112Y-61291139D01*
X176298494Y-61104597D01*
X176131402Y-60937506D01*
X176131396Y-60937501D01*
X175945842Y-60807575D01*
X175902217Y-60752998D01*
X175895023Y-60683500D01*
X175926546Y-60621145D01*
X175945842Y-60604425D01*
X176100210Y-60496335D01*
X176131401Y-60474495D01*
X176298495Y-60307401D01*
X176434035Y-60113830D01*
X176533903Y-59899663D01*
X176595063Y-59671408D01*
X176615659Y-59436000D01*
X176595063Y-59200592D01*
X176533903Y-58972337D01*
X176434035Y-58758171D01*
X176429112Y-58751139D01*
X176298494Y-58564597D01*
X176131402Y-58397506D01*
X176131396Y-58397501D01*
X175945842Y-58267575D01*
X175902217Y-58212998D01*
X175895023Y-58143500D01*
X175926546Y-58081145D01*
X175945842Y-58064425D01*
X175968026Y-58048891D01*
X176131401Y-57934495D01*
X176298495Y-57767401D01*
X176434035Y-57573830D01*
X176533903Y-57359663D01*
X176595063Y-57131408D01*
X176615659Y-56896000D01*
X176595063Y-56660592D01*
X176533903Y-56432337D01*
X176434035Y-56218171D01*
X176418169Y-56195511D01*
X176298494Y-56024597D01*
X176131402Y-55857506D01*
X176131396Y-55857501D01*
X175945842Y-55727575D01*
X175902217Y-55672998D01*
X175895023Y-55603500D01*
X175926546Y-55541145D01*
X175945842Y-55524425D01*
X176042730Y-55456583D01*
X176131401Y-55394495D01*
X176298495Y-55227401D01*
X176434035Y-55033830D01*
X176533903Y-54819663D01*
X176595063Y-54591408D01*
X176615659Y-54356000D01*
X176595063Y-54120592D01*
X176533903Y-53892337D01*
X176434035Y-53678171D01*
X176388117Y-53612592D01*
X176298494Y-53484597D01*
X176131402Y-53317506D01*
X176131396Y-53317501D01*
X175945842Y-53187575D01*
X175902217Y-53132998D01*
X175895023Y-53063500D01*
X175926546Y-53001145D01*
X175945842Y-52984425D01*
X176125354Y-52858729D01*
X176131401Y-52854495D01*
X176298495Y-52687401D01*
X176434035Y-52493830D01*
X176533903Y-52279663D01*
X176595063Y-52051408D01*
X176615659Y-51816000D01*
X176615025Y-51808759D01*
X176606711Y-51713722D01*
X176595063Y-51580592D01*
X176533903Y-51352337D01*
X176434035Y-51138171D01*
X176414566Y-51110365D01*
X176298494Y-50944597D01*
X176131402Y-50777506D01*
X176131396Y-50777501D01*
X175945842Y-50647575D01*
X175902217Y-50592998D01*
X175895023Y-50523500D01*
X175926546Y-50461145D01*
X175945842Y-50444425D01*
X175968026Y-50428891D01*
X176131401Y-50314495D01*
X176298495Y-50147401D01*
X176434035Y-49953830D01*
X176533903Y-49739663D01*
X176595063Y-49511408D01*
X176615659Y-49276000D01*
X176595063Y-49040592D01*
X176533903Y-48812337D01*
X176434035Y-48598171D01*
X176429112Y-48591139D01*
X176298494Y-48404597D01*
X176131402Y-48237506D01*
X176131395Y-48237501D01*
X176128944Y-48235785D01*
X176075692Y-48198497D01*
X175937834Y-48101967D01*
X175937830Y-48101965D01*
X175896113Y-48082512D01*
X175723663Y-48002097D01*
X175723659Y-48002096D01*
X175723655Y-48002094D01*
X175495413Y-47940938D01*
X175495403Y-47940936D01*
X175260001Y-47920341D01*
X175259999Y-47920341D01*
X175024596Y-47940936D01*
X175024586Y-47940938D01*
X174796344Y-48002094D01*
X174796335Y-48002098D01*
X174582171Y-48101964D01*
X174582169Y-48101965D01*
X174388597Y-48237505D01*
X174221505Y-48404597D01*
X174085965Y-48598169D01*
X174085964Y-48598171D01*
X173986098Y-48812335D01*
X173986094Y-48812344D01*
X173924938Y-49040586D01*
X173924936Y-49040596D01*
X173904341Y-49275999D01*
X173904341Y-49276000D01*
X173924936Y-49511403D01*
X173924938Y-49511413D01*
X173986094Y-49739655D01*
X173986096Y-49739659D01*
X173986097Y-49739663D01*
X174080465Y-49942035D01*
X174085965Y-49953830D01*
X174085967Y-49953834D01*
X174221501Y-50147395D01*
X174221506Y-50147402D01*
X174388597Y-50314493D01*
X174388603Y-50314498D01*
X174574158Y-50444425D01*
X174617783Y-50499002D01*
X174624977Y-50568500D01*
X174593454Y-50630855D01*
X174574158Y-50647575D01*
X174388597Y-50777505D01*
X174221505Y-50944597D01*
X174085965Y-51138169D01*
X174085964Y-51138171D01*
X173986098Y-51352335D01*
X173986094Y-51352344D01*
X173924938Y-51580586D01*
X173924936Y-51580596D01*
X173904341Y-51815999D01*
X173904341Y-51816000D01*
X173924936Y-52051403D01*
X173924938Y-52051413D01*
X173986094Y-52279655D01*
X173986096Y-52279659D01*
X173986097Y-52279663D01*
X174017263Y-52346498D01*
X174085965Y-52493830D01*
X174085967Y-52493834D01*
X174221501Y-52687395D01*
X174221506Y-52687402D01*
X174388597Y-52854493D01*
X174388603Y-52854498D01*
X174574158Y-52984425D01*
X174617783Y-53039002D01*
X174624977Y-53108500D01*
X174593454Y-53170855D01*
X174574158Y-53187575D01*
X174388597Y-53317505D01*
X174221505Y-53484597D01*
X174085965Y-53678169D01*
X174085964Y-53678171D01*
X173986098Y-53892335D01*
X173986094Y-53892344D01*
X173924938Y-54120586D01*
X173924936Y-54120596D01*
X173904341Y-54355999D01*
X173904341Y-54356000D01*
X173924936Y-54591403D01*
X173924938Y-54591413D01*
X173986094Y-54819655D01*
X173986096Y-54819659D01*
X173986097Y-54819663D01*
X174080464Y-55022034D01*
X174085965Y-55033830D01*
X174085967Y-55033834D01*
X174190458Y-55183061D01*
X174210393Y-55211532D01*
X174221501Y-55227395D01*
X174221506Y-55227402D01*
X174388597Y-55394493D01*
X174388603Y-55394498D01*
X174574158Y-55524425D01*
X174617783Y-55579002D01*
X174624977Y-55648500D01*
X174593454Y-55710855D01*
X174574158Y-55727575D01*
X174388597Y-55857505D01*
X174221505Y-56024597D01*
X174085965Y-56218169D01*
X174085964Y-56218171D01*
X173986098Y-56432335D01*
X173986094Y-56432344D01*
X173924938Y-56660586D01*
X173924936Y-56660596D01*
X173904341Y-56895999D01*
X173904341Y-56896000D01*
X173924936Y-57131403D01*
X173924938Y-57131413D01*
X173986094Y-57359655D01*
X173986096Y-57359659D01*
X173986097Y-57359663D01*
X174061856Y-57522128D01*
X174085965Y-57573830D01*
X174085967Y-57573834D01*
X174221501Y-57767395D01*
X174221506Y-57767402D01*
X174388597Y-57934493D01*
X174388603Y-57934498D01*
X174574158Y-58064425D01*
X174617783Y-58119002D01*
X174624977Y-58188500D01*
X174593454Y-58250855D01*
X174574158Y-58267575D01*
X174388597Y-58397505D01*
X174221505Y-58564597D01*
X174085965Y-58758169D01*
X174085964Y-58758171D01*
X173986098Y-58972335D01*
X173986094Y-58972344D01*
X173924938Y-59200586D01*
X173924936Y-59200596D01*
X173904341Y-59435999D01*
X173904341Y-59436000D01*
X173924936Y-59671403D01*
X173924938Y-59671413D01*
X173986094Y-59899655D01*
X173986096Y-59899659D01*
X173986097Y-59899663D01*
X174017345Y-59966674D01*
X174085965Y-60113830D01*
X174085967Y-60113834D01*
X174221501Y-60307395D01*
X174221506Y-60307402D01*
X174388597Y-60474493D01*
X174388603Y-60474498D01*
X174574158Y-60604425D01*
X174617783Y-60659002D01*
X174624977Y-60728500D01*
X174593454Y-60790855D01*
X174574158Y-60807575D01*
X174388597Y-60937505D01*
X174221505Y-61104597D01*
X174085965Y-61298169D01*
X174085964Y-61298171D01*
X173986098Y-61512335D01*
X173986094Y-61512344D01*
X173924938Y-61740586D01*
X173924936Y-61740596D01*
X173904341Y-61975999D01*
X173904341Y-61976000D01*
X173924936Y-62211403D01*
X173924938Y-62211413D01*
X173986094Y-62439655D01*
X173986096Y-62439659D01*
X173986097Y-62439663D01*
X174050385Y-62577529D01*
X174085965Y-62653830D01*
X174085967Y-62653834D01*
X174221501Y-62847395D01*
X174221506Y-62847402D01*
X174388597Y-63014493D01*
X174388603Y-63014498D01*
X174574158Y-63144425D01*
X174617783Y-63199002D01*
X174624977Y-63268500D01*
X174593454Y-63330855D01*
X174574158Y-63347575D01*
X174388597Y-63477505D01*
X174221505Y-63644597D01*
X174085965Y-63838169D01*
X174085964Y-63838171D01*
X173986098Y-64052335D01*
X173986094Y-64052344D01*
X173924938Y-64280586D01*
X173924936Y-64280596D01*
X173904341Y-64515999D01*
X173904341Y-64516000D01*
X173924936Y-64751403D01*
X173924938Y-64751413D01*
X173986094Y-64979655D01*
X173986096Y-64979659D01*
X173986097Y-64979663D01*
X174021334Y-65055228D01*
X174085965Y-65193830D01*
X174085967Y-65193834D01*
X174194281Y-65348521D01*
X174221410Y-65387266D01*
X174221501Y-65387395D01*
X174221506Y-65387402D01*
X174388597Y-65554493D01*
X174388603Y-65554498D01*
X174574158Y-65684425D01*
X174617783Y-65739002D01*
X174624977Y-65808500D01*
X174593454Y-65870855D01*
X174574158Y-65887575D01*
X174388597Y-66017505D01*
X174221505Y-66184597D01*
X174085965Y-66378169D01*
X174085964Y-66378171D01*
X173986098Y-66592335D01*
X173986094Y-66592344D01*
X173924938Y-66820586D01*
X173924936Y-66820596D01*
X173904341Y-67055999D01*
X173904341Y-67056000D01*
X173924936Y-67291403D01*
X173924938Y-67291413D01*
X173986094Y-67519655D01*
X173986096Y-67519659D01*
X173986097Y-67519663D01*
X174074349Y-67708920D01*
X174085965Y-67733830D01*
X174085967Y-67733834D01*
X174194281Y-67888521D01*
X174204014Y-67902422D01*
X174221501Y-67927395D01*
X174221506Y-67927402D01*
X174388597Y-68094493D01*
X174388603Y-68094498D01*
X174574158Y-68224425D01*
X174617783Y-68279002D01*
X174624977Y-68348500D01*
X174593454Y-68410855D01*
X174574158Y-68427575D01*
X174388597Y-68557505D01*
X174221505Y-68724597D01*
X174086348Y-68917623D01*
X174031771Y-68961248D01*
X173984773Y-68970500D01*
X168966453Y-68970500D01*
X168899414Y-68950815D01*
X168878772Y-68934181D01*
X164999819Y-65055228D01*
X164966334Y-64993905D01*
X164963500Y-64967547D01*
X164963500Y-63305229D01*
X164983185Y-63238190D01*
X164997108Y-63220345D01*
X165017151Y-63199002D01*
X165041227Y-63173363D01*
X165062120Y-63152471D01*
X165066379Y-63146978D01*
X165070152Y-63142561D01*
X165102062Y-63108582D01*
X165111713Y-63091024D01*
X165122396Y-63074761D01*
X165134673Y-63058936D01*
X165153185Y-63016153D01*
X165155738Y-63010941D01*
X165178197Y-62970092D01*
X165183180Y-62950680D01*
X165189481Y-62932280D01*
X165197437Y-62913896D01*
X165204729Y-62867852D01*
X165205906Y-62862171D01*
X165217500Y-62817019D01*
X165217500Y-62796983D01*
X165219027Y-62777582D01*
X165222160Y-62757804D01*
X165217775Y-62711415D01*
X165217500Y-62705577D01*
X165217500Y-50374737D01*
X165219224Y-50359123D01*
X165218938Y-50359096D01*
X165219672Y-50351333D01*
X165217500Y-50282203D01*
X165217500Y-50252651D01*
X165217500Y-50252650D01*
X165216629Y-50245759D01*
X165216172Y-50239945D01*
X165214709Y-50193372D01*
X165209122Y-50174144D01*
X165205174Y-50155084D01*
X165204204Y-50147402D01*
X165202664Y-50135208D01*
X165185507Y-50091875D01*
X165183619Y-50086359D01*
X165170619Y-50041612D01*
X165160418Y-50024363D01*
X165151860Y-50006894D01*
X165144486Y-49988268D01*
X165144483Y-49988264D01*
X165144483Y-49988263D01*
X165117098Y-49950571D01*
X165113890Y-49945687D01*
X165090172Y-49905582D01*
X165090163Y-49905571D01*
X165076005Y-49891413D01*
X165063370Y-49876620D01*
X165051593Y-49860412D01*
X165015693Y-49830713D01*
X165011381Y-49826790D01*
X163677803Y-48493212D01*
X163667980Y-48480950D01*
X163667759Y-48481134D01*
X163662786Y-48475123D01*
X163612364Y-48427773D01*
X163598786Y-48414195D01*
X163591475Y-48406883D01*
X163585986Y-48402625D01*
X163581561Y-48398847D01*
X163547582Y-48366938D01*
X163547580Y-48366936D01*
X163547577Y-48366935D01*
X163530029Y-48357288D01*
X163513763Y-48346604D01*
X163497933Y-48334325D01*
X163455168Y-48315818D01*
X163449922Y-48313248D01*
X163409093Y-48290803D01*
X163409092Y-48290802D01*
X163389693Y-48285822D01*
X163371281Y-48279518D01*
X163352898Y-48271562D01*
X163352892Y-48271560D01*
X163306874Y-48264272D01*
X163301152Y-48263087D01*
X163289539Y-48260106D01*
X163229500Y-48224368D01*
X163198314Y-48161845D01*
X163205881Y-48092386D01*
X163249800Y-48038045D01*
X163261233Y-48031616D01*
X163261107Y-48031397D01*
X163266724Y-48028153D01*
X163266730Y-48028151D01*
X163419871Y-47916888D01*
X163422788Y-47913647D01*
X163425600Y-47910526D01*
X163485087Y-47873879D01*
X163517748Y-47869500D01*
X164383653Y-47869500D01*
X164399273Y-47871224D01*
X164399300Y-47870939D01*
X164407056Y-47871671D01*
X164407063Y-47871673D01*
X164476210Y-47869500D01*
X164505746Y-47869500D01*
X164512624Y-47868630D01*
X164518437Y-47868172D01*
X164565023Y-47866709D01*
X164584265Y-47861117D01*
X164603308Y-47857174D01*
X164623188Y-47854664D01*
X164666518Y-47837507D01*
X164672042Y-47835617D01*
X164675792Y-47834527D01*
X164716786Y-47822618D01*
X164734025Y-47812422D01*
X164751499Y-47803862D01*
X164770123Y-47796488D01*
X164770123Y-47796487D01*
X164770128Y-47796486D01*
X164807845Y-47769082D01*
X164812701Y-47765892D01*
X164852816Y-47742170D01*
X164866985Y-47727999D01*
X164881775Y-47715368D01*
X164897983Y-47703594D01*
X164927695Y-47667676D01*
X164931608Y-47663376D01*
X165705168Y-46889819D01*
X165766491Y-46856334D01*
X165792849Y-46853500D01*
X168331153Y-46853500D01*
X168354385Y-46855696D01*
X168355989Y-46856001D01*
X168362412Y-46857227D01*
X168419724Y-46853621D01*
X168423597Y-46853500D01*
X168441342Y-46853500D01*
X168441350Y-46853500D01*
X168458990Y-46851271D01*
X168462807Y-46850910D01*
X168520138Y-46847304D01*
X168527905Y-46844780D01*
X168550680Y-46839688D01*
X168558792Y-46838664D01*
X168612195Y-46817519D01*
X168615835Y-46816209D01*
X168670441Y-46798467D01*
X168677337Y-46794090D01*
X168698133Y-46783494D01*
X168705732Y-46780486D01*
X168752191Y-46746730D01*
X168755390Y-46744555D01*
X168803877Y-46713786D01*
X168809466Y-46707833D01*
X168826979Y-46692394D01*
X168833587Y-46687594D01*
X168870190Y-46643347D01*
X168872736Y-46640457D01*
X168912062Y-46598582D01*
X168915998Y-46591421D01*
X168929119Y-46572114D01*
X168934324Y-46565823D01*
X168935242Y-46563873D01*
X168958769Y-46513874D01*
X168960528Y-46510419D01*
X168988197Y-46460092D01*
X168990227Y-46452181D01*
X168998135Y-46430218D01*
X169001614Y-46422826D01*
X169012377Y-46366401D01*
X169013210Y-46362670D01*
X169027500Y-46307019D01*
X169027500Y-46298844D01*
X169029697Y-46275606D01*
X169031227Y-46267588D01*
X169027621Y-46210275D01*
X169027500Y-46206403D01*
X169027500Y-44278737D01*
X169029224Y-44263123D01*
X169028938Y-44263096D01*
X169029672Y-44255333D01*
X169027500Y-44186203D01*
X169027500Y-44168898D01*
X169032603Y-44136681D01*
X169032321Y-44136621D01*
X169033468Y-44131221D01*
X169033571Y-44130574D01*
X169033672Y-44130262D01*
X169033673Y-44130259D01*
X169033674Y-44130256D01*
X169053460Y-43942000D01*
X169033674Y-43753744D01*
X168975179Y-43573716D01*
X168880533Y-43409784D01*
X168753871Y-43269112D01*
X168753870Y-43269111D01*
X168600734Y-43157851D01*
X168600729Y-43157848D01*
X168427807Y-43080857D01*
X168427802Y-43080855D01*
X168280980Y-43049648D01*
X168242646Y-43041500D01*
X168053354Y-43041500D01*
X168020897Y-43048398D01*
X167868197Y-43080855D01*
X167868192Y-43080857D01*
X167695270Y-43157848D01*
X167695265Y-43157851D01*
X167542129Y-43269111D01*
X167415466Y-43409785D01*
X167320821Y-43573715D01*
X167320818Y-43573722D01*
X167262327Y-43753740D01*
X167262326Y-43753744D01*
X167242540Y-43942000D01*
X167262326Y-44130256D01*
X167262327Y-44130259D01*
X167320818Y-44310277D01*
X167320821Y-44310284D01*
X167415467Y-44474216D01*
X167516013Y-44585883D01*
X167542129Y-44614888D01*
X167695265Y-44726148D01*
X167695267Y-44726149D01*
X167695270Y-44726151D01*
X167702936Y-44729564D01*
X167756173Y-44774814D01*
X167776494Y-44841663D01*
X167776500Y-44842843D01*
X167776500Y-45478500D01*
X167756815Y-45545539D01*
X167704011Y-45591294D01*
X167652500Y-45602500D01*
X165565139Y-45602500D01*
X165549518Y-45600775D01*
X165549492Y-45601061D01*
X165541730Y-45600327D01*
X165541729Y-45600327D01*
X165472582Y-45602500D01*
X165443045Y-45602500D01*
X165436162Y-45603369D01*
X165430345Y-45603826D01*
X165383769Y-45605290D01*
X165364525Y-45610881D01*
X165345475Y-45614825D01*
X165325607Y-45617334D01*
X165282280Y-45634488D01*
X165276754Y-45636379D01*
X165232010Y-45649379D01*
X165232006Y-45649381D01*
X165214762Y-45659579D01*
X165197301Y-45668133D01*
X165178670Y-45675510D01*
X165178658Y-45675517D01*
X165140966Y-45702902D01*
X165136083Y-45706109D01*
X165095976Y-45729829D01*
X165081810Y-45743995D01*
X165067020Y-45756627D01*
X165050810Y-45768404D01*
X165050807Y-45768407D01*
X165021106Y-45804309D01*
X165017173Y-45808631D01*
X164243624Y-46582181D01*
X164182301Y-46615666D01*
X164155943Y-46618500D01*
X163517748Y-46618500D01*
X163450709Y-46598815D01*
X163425600Y-46577474D01*
X163419873Y-46571114D01*
X163419869Y-46571110D01*
X163266734Y-46459851D01*
X163266729Y-46459848D01*
X163093807Y-46382857D01*
X163093802Y-46382855D01*
X162937123Y-46349553D01*
X162908646Y-46343500D01*
X162719354Y-46343500D01*
X162690877Y-46349553D01*
X162534197Y-46382855D01*
X162534192Y-46382857D01*
X162361270Y-46459848D01*
X162361265Y-46459851D01*
X162208129Y-46571111D01*
X162081466Y-46711785D01*
X161986821Y-46875715D01*
X161986818Y-46875722D01*
X161928327Y-47055740D01*
X161928326Y-47055744D01*
X161908540Y-47244000D01*
X161928326Y-47432256D01*
X161928327Y-47432259D01*
X161986818Y-47612277D01*
X161986821Y-47612284D01*
X162081467Y-47776216D01*
X162185081Y-47891291D01*
X162208129Y-47916888D01*
X162359936Y-48027182D01*
X162402602Y-48082512D01*
X162408581Y-48152125D01*
X162375975Y-48213920D01*
X162315137Y-48248277D01*
X162287051Y-48251500D01*
X161455452Y-48251500D01*
X161388413Y-48231815D01*
X161367771Y-48215181D01*
X160119810Y-46967219D01*
X160086325Y-46905896D01*
X160091309Y-46836204D01*
X160133181Y-46780271D01*
X160196683Y-46756010D01*
X160246692Y-46751635D01*
X160466496Y-46692739D01*
X160672734Y-46596568D01*
X160859139Y-46466047D01*
X161020047Y-46305139D01*
X161150568Y-46118734D01*
X161246739Y-45912496D01*
X161305635Y-45692692D01*
X161325468Y-45466000D01*
X161305635Y-45239308D01*
X161250112Y-45032091D01*
X161246741Y-45019511D01*
X161246738Y-45019502D01*
X161150568Y-44813266D01*
X161033086Y-44645483D01*
X161020045Y-44626858D01*
X160859141Y-44465954D01*
X160672734Y-44335432D01*
X160672732Y-44335431D01*
X160466497Y-44239261D01*
X160466488Y-44239258D01*
X160246697Y-44180366D01*
X160246693Y-44180365D01*
X160246692Y-44180365D01*
X160246691Y-44180364D01*
X160246686Y-44180364D01*
X160020002Y-44160532D01*
X160019998Y-44160532D01*
X159793313Y-44180364D01*
X159793302Y-44180366D01*
X159573511Y-44239258D01*
X159573502Y-44239261D01*
X159367267Y-44335431D01*
X159367265Y-44335432D01*
X159180858Y-44465954D01*
X159019954Y-44626858D01*
X158889432Y-44813265D01*
X158889431Y-44813267D01*
X158793261Y-45019502D01*
X158793258Y-45019511D01*
X158734366Y-45239302D01*
X158734364Y-45239313D01*
X158714532Y-45465998D01*
X158714532Y-45466001D01*
X158734364Y-45692686D01*
X158734366Y-45692697D01*
X158793258Y-45912488D01*
X158793261Y-45912497D01*
X158889431Y-46118732D01*
X158889432Y-46118734D01*
X159019954Y-46305141D01*
X159121632Y-46406819D01*
X159155117Y-46468142D01*
X159150133Y-46537834D01*
X159108261Y-46593767D01*
X159042797Y-46618184D01*
X159033951Y-46618500D01*
X157455775Y-46618500D01*
X157388736Y-46598815D01*
X157368094Y-46582181D01*
X155868126Y-45082212D01*
X155858303Y-45069950D01*
X155858082Y-45070134D01*
X155853109Y-45064123D01*
X155835647Y-45047725D01*
X155802687Y-45016773D01*
X155792242Y-45006328D01*
X155781798Y-44995883D01*
X155776309Y-44991625D01*
X155771884Y-44987847D01*
X155737905Y-44955938D01*
X155737903Y-44955936D01*
X155737900Y-44955935D01*
X155720352Y-44946288D01*
X155704086Y-44935604D01*
X155688256Y-44923325D01*
X155645491Y-44904818D01*
X155640245Y-44902248D01*
X155599416Y-44879803D01*
X155599415Y-44879802D01*
X155580016Y-44874822D01*
X155561604Y-44868518D01*
X155543221Y-44860562D01*
X155543215Y-44860560D01*
X155497197Y-44853272D01*
X155491475Y-44852087D01*
X155446344Y-44840500D01*
X155446342Y-44840500D01*
X155426307Y-44840500D01*
X155406909Y-44838973D01*
X155399485Y-44837797D01*
X155387128Y-44835840D01*
X155387127Y-44835840D01*
X155340739Y-44840225D01*
X155334901Y-44840500D01*
X151074188Y-44840500D01*
X151007149Y-44820815D01*
X150972613Y-44787623D01*
X150860045Y-44626858D01*
X150699141Y-44465954D01*
X150512734Y-44335432D01*
X150512732Y-44335431D01*
X150306497Y-44239261D01*
X150306488Y-44239258D01*
X150086697Y-44180366D01*
X150086693Y-44180365D01*
X150086692Y-44180365D01*
X150086691Y-44180364D01*
X150086686Y-44180364D01*
X149860002Y-44160532D01*
X149859998Y-44160532D01*
X149633313Y-44180364D01*
X149633302Y-44180366D01*
X149413511Y-44239258D01*
X149413502Y-44239261D01*
X149207267Y-44335431D01*
X149207265Y-44335432D01*
X149020858Y-44465954D01*
X148859954Y-44626858D01*
X148729432Y-44813265D01*
X148729431Y-44813267D01*
X148633261Y-45019502D01*
X148633258Y-45019511D01*
X148574366Y-45239302D01*
X148574364Y-45239313D01*
X148554532Y-45465998D01*
X148554532Y-45466001D01*
X148574364Y-45692686D01*
X148574366Y-45692697D01*
X148633258Y-45912488D01*
X148633261Y-45912497D01*
X148729431Y-46118732D01*
X148729432Y-46118734D01*
X148859954Y-46305141D01*
X149020858Y-46466045D01*
X149020861Y-46466047D01*
X149207266Y-46596568D01*
X149413504Y-46692739D01*
X149413509Y-46692740D01*
X149413511Y-46692741D01*
X149466415Y-46706916D01*
X149633308Y-46751635D01*
X149795230Y-46765801D01*
X149859998Y-46771468D01*
X149860000Y-46771468D01*
X149860002Y-46771468D01*
X149916673Y-46766509D01*
X150086692Y-46751635D01*
X150306496Y-46692739D01*
X150512734Y-46596568D01*
X150699139Y-46466047D01*
X150860047Y-46305139D01*
X150972613Y-46144377D01*
X151027189Y-46100752D01*
X151074188Y-46091500D01*
X155056871Y-46091500D01*
X155123910Y-46111185D01*
X155144552Y-46127819D01*
X156644517Y-47627784D01*
X156654342Y-47640048D01*
X156654563Y-47639866D01*
X156659536Y-47645877D01*
X156692885Y-47677193D01*
X156728281Y-47737433D01*
X156725489Y-47807247D01*
X156685396Y-47864469D01*
X156626821Y-47888438D01*
X156627080Y-47890070D01*
X156619373Y-47891290D01*
X156600129Y-47896881D01*
X156581079Y-47900825D01*
X156561211Y-47903334D01*
X156517884Y-47920488D01*
X156512358Y-47922379D01*
X156467614Y-47935379D01*
X156467610Y-47935381D01*
X156450366Y-47945579D01*
X156432905Y-47954133D01*
X156414274Y-47961510D01*
X156414262Y-47961517D01*
X156376570Y-47988902D01*
X156371687Y-47992109D01*
X156331580Y-48015829D01*
X156317414Y-48029995D01*
X156302624Y-48042627D01*
X156286414Y-48054404D01*
X156286411Y-48054407D01*
X156256710Y-48090309D01*
X156252777Y-48094631D01*
X154318228Y-50029181D01*
X154256905Y-50062666D01*
X154230547Y-50065500D01*
X136276782Y-50065500D01*
X136209743Y-50045815D01*
X136163988Y-49993011D01*
X136154044Y-49923853D01*
X136183069Y-49860297D01*
X136205658Y-49839925D01*
X136253401Y-49806495D01*
X136420495Y-49639401D01*
X136556035Y-49445830D01*
X136655903Y-49231663D01*
X136717063Y-49003408D01*
X136737659Y-48768000D01*
X136717063Y-48532592D01*
X136690143Y-48432125D01*
X136691806Y-48362276D01*
X136722235Y-48312353D01*
X137282587Y-47752001D01*
X145252532Y-47752001D01*
X145272364Y-47978686D01*
X145272366Y-47978697D01*
X145331258Y-48198488D01*
X145331261Y-48198497D01*
X145427431Y-48404732D01*
X145427432Y-48404734D01*
X145557954Y-48591141D01*
X145718858Y-48752045D01*
X145718861Y-48752047D01*
X145905266Y-48882568D01*
X146111504Y-48978739D01*
X146331308Y-49037635D01*
X146493230Y-49051801D01*
X146557998Y-49057468D01*
X146558000Y-49057468D01*
X146558002Y-49057468D01*
X146614673Y-49052509D01*
X146784692Y-49037635D01*
X147004496Y-48978739D01*
X147210734Y-48882568D01*
X147397139Y-48752047D01*
X147558047Y-48591139D01*
X147670350Y-48430752D01*
X147724925Y-48387128D01*
X147794424Y-48379934D01*
X147856778Y-48411456D01*
X147859605Y-48414195D01*
X148159038Y-48713629D01*
X148192523Y-48774952D01*
X148194678Y-48788348D01*
X148202968Y-48867227D01*
X148212326Y-48956256D01*
X148212327Y-48956259D01*
X148270818Y-49136277D01*
X148270821Y-49136284D01*
X148365467Y-49300216D01*
X148461973Y-49407396D01*
X148492129Y-49440888D01*
X148645265Y-49552148D01*
X148645270Y-49552151D01*
X148818192Y-49629142D01*
X148818197Y-49629144D01*
X149003354Y-49668500D01*
X149003355Y-49668500D01*
X149192644Y-49668500D01*
X149192646Y-49668500D01*
X149377803Y-49629144D01*
X149550730Y-49552151D01*
X149703871Y-49440888D01*
X149830533Y-49300216D01*
X149925179Y-49136284D01*
X149983674Y-48956256D01*
X150003460Y-48768000D01*
X149983674Y-48579744D01*
X149925179Y-48399716D01*
X149830533Y-48235784D01*
X149703871Y-48095112D01*
X149703209Y-48094631D01*
X149550734Y-47983851D01*
X149550729Y-47983848D01*
X149377807Y-47906857D01*
X149377802Y-47906855D01*
X149222657Y-47873879D01*
X149192646Y-47867500D01*
X149192645Y-47867500D01*
X149133452Y-47867500D01*
X149066413Y-47847815D01*
X149045771Y-47831181D01*
X148826874Y-47612284D01*
X148582803Y-47368212D01*
X148572980Y-47355950D01*
X148572759Y-47356134D01*
X148567786Y-47350123D01*
X148517364Y-47302773D01*
X148506919Y-47292328D01*
X148496475Y-47281883D01*
X148490986Y-47277625D01*
X148486561Y-47273847D01*
X148452582Y-47241938D01*
X148452580Y-47241936D01*
X148452577Y-47241935D01*
X148435029Y-47232288D01*
X148418763Y-47221604D01*
X148402933Y-47209325D01*
X148360168Y-47190818D01*
X148354922Y-47188248D01*
X148314093Y-47165803D01*
X148314092Y-47165802D01*
X148294693Y-47160822D01*
X148276281Y-47154518D01*
X148257898Y-47146562D01*
X148257892Y-47146560D01*
X148211874Y-47139272D01*
X148206152Y-47138087D01*
X148161021Y-47126500D01*
X148161019Y-47126500D01*
X148140984Y-47126500D01*
X148121586Y-47124973D01*
X148114162Y-47123797D01*
X148101805Y-47121840D01*
X148101804Y-47121840D01*
X148055416Y-47126225D01*
X148049578Y-47126500D01*
X147772188Y-47126500D01*
X147705149Y-47106815D01*
X147670613Y-47073623D01*
X147558045Y-46912858D01*
X147397141Y-46751954D01*
X147338045Y-46710575D01*
X147294420Y-46655999D01*
X147287226Y-46586500D01*
X147318749Y-46524145D01*
X147338045Y-46507425D01*
X147358261Y-46493269D01*
X147397139Y-46466047D01*
X147558047Y-46305139D01*
X147688568Y-46118734D01*
X147784739Y-45912496D01*
X147843635Y-45692692D01*
X147863468Y-45466000D01*
X147843635Y-45239308D01*
X147788112Y-45032091D01*
X147784741Y-45019511D01*
X147784738Y-45019502D01*
X147688568Y-44813266D01*
X147571086Y-44645483D01*
X147558045Y-44626858D01*
X147397141Y-44465954D01*
X147210734Y-44335432D01*
X147210732Y-44335431D01*
X147004497Y-44239261D01*
X147004488Y-44239258D01*
X146784697Y-44180366D01*
X146784693Y-44180365D01*
X146784692Y-44180365D01*
X146784691Y-44180364D01*
X146784686Y-44180364D01*
X146558002Y-44160532D01*
X146557998Y-44160532D01*
X146331313Y-44180364D01*
X146331302Y-44180366D01*
X146111511Y-44239258D01*
X146111502Y-44239261D01*
X145905267Y-44335431D01*
X145905265Y-44335432D01*
X145718858Y-44465954D01*
X145557954Y-44626858D01*
X145427432Y-44813265D01*
X145427431Y-44813267D01*
X145331261Y-45019502D01*
X145331258Y-45019511D01*
X145272366Y-45239302D01*
X145272364Y-45239313D01*
X145252532Y-45465998D01*
X145252532Y-45466001D01*
X145272364Y-45692686D01*
X145272366Y-45692697D01*
X145331258Y-45912488D01*
X145331261Y-45912497D01*
X145427431Y-46118732D01*
X145427432Y-46118734D01*
X145557954Y-46305141D01*
X145718858Y-46466045D01*
X145777955Y-46507425D01*
X145821580Y-46562001D01*
X145828774Y-46631500D01*
X145797251Y-46693855D01*
X145777955Y-46710575D01*
X145718858Y-46751954D01*
X145557954Y-46912858D01*
X145427432Y-47099265D01*
X145427431Y-47099267D01*
X145331261Y-47305502D01*
X145331258Y-47305511D01*
X145272366Y-47525302D01*
X145272364Y-47525313D01*
X145252532Y-47751998D01*
X145252532Y-47752001D01*
X137282587Y-47752001D01*
X140083788Y-44950801D01*
X140096042Y-44940986D01*
X140095859Y-44940764D01*
X140101866Y-44935792D01*
X140101877Y-44935786D01*
X140139665Y-44895546D01*
X140149227Y-44885364D01*
X140159671Y-44874918D01*
X140170120Y-44864471D01*
X140174379Y-44858978D01*
X140178152Y-44854561D01*
X140210062Y-44820582D01*
X140219713Y-44803024D01*
X140230396Y-44786761D01*
X140242673Y-44770936D01*
X140261185Y-44728153D01*
X140263738Y-44722941D01*
X140286197Y-44682092D01*
X140291180Y-44662680D01*
X140297481Y-44644280D01*
X140305437Y-44625896D01*
X140312729Y-44579852D01*
X140313906Y-44574171D01*
X140325500Y-44529019D01*
X140325500Y-44508983D01*
X140327027Y-44489582D01*
X140330160Y-44469804D01*
X140325775Y-44423415D01*
X140325500Y-44417577D01*
X140325500Y-43116687D01*
X140345185Y-43049648D01*
X140357350Y-43033715D01*
X140375891Y-43013122D01*
X140432533Y-42950216D01*
X140527179Y-42786284D01*
X140585674Y-42606256D01*
X140605460Y-42418000D01*
X140585674Y-42229744D01*
X140527179Y-42049716D01*
X140432533Y-41885784D01*
X140305871Y-41745112D01*
X140305870Y-41745111D01*
X140152734Y-41633851D01*
X140152729Y-41633848D01*
X139979807Y-41556857D01*
X139979802Y-41556855D01*
X139834001Y-41525865D01*
X139794646Y-41517500D01*
X139605354Y-41517500D01*
X139572897Y-41524398D01*
X139420197Y-41556855D01*
X139420192Y-41556857D01*
X139247270Y-41633848D01*
X139247265Y-41633851D01*
X139094129Y-41745111D01*
X138967466Y-41885785D01*
X138872821Y-42049715D01*
X138872818Y-42049722D01*
X138814327Y-42229740D01*
X138814326Y-42229744D01*
X138794540Y-42418000D01*
X138814326Y-42606256D01*
X138814327Y-42606259D01*
X138872818Y-42786277D01*
X138872821Y-42786284D01*
X138967467Y-42950216D01*
X139010772Y-42998310D01*
X139042650Y-43033715D01*
X139072880Y-43096706D01*
X139074500Y-43116687D01*
X139074500Y-44139546D01*
X139054815Y-44206585D01*
X139038181Y-44227227D01*
X136949340Y-46316068D01*
X136888017Y-46349553D01*
X136818325Y-46344569D01*
X136762392Y-46302697D01*
X136737975Y-46237233D01*
X136737659Y-46228387D01*
X136737659Y-46227999D01*
X136726526Y-46100752D01*
X136717063Y-45992592D01*
X136655903Y-45764337D01*
X136556035Y-45550171D01*
X136420495Y-45356599D01*
X136298567Y-45234671D01*
X136265084Y-45173351D01*
X136270068Y-45103659D01*
X136311939Y-45047725D01*
X136342915Y-45030810D01*
X136474331Y-44981796D01*
X136589546Y-44895546D01*
X136675796Y-44780331D01*
X136726091Y-44645483D01*
X136732500Y-44585873D01*
X136732499Y-42790128D01*
X136726091Y-42730517D01*
X136675796Y-42595669D01*
X136675795Y-42595668D01*
X136675793Y-42595664D01*
X136589547Y-42480455D01*
X136589544Y-42480452D01*
X136474335Y-42394206D01*
X136474328Y-42394202D01*
X136339482Y-42343908D01*
X136339483Y-42343908D01*
X136279883Y-42337501D01*
X136279881Y-42337500D01*
X136279873Y-42337500D01*
X136279864Y-42337500D01*
X134484129Y-42337500D01*
X134484123Y-42337501D01*
X134424516Y-42343908D01*
X134289671Y-42394202D01*
X134289664Y-42394206D01*
X134174455Y-42480452D01*
X134174452Y-42480455D01*
X134088206Y-42595664D01*
X134088202Y-42595671D01*
X134037908Y-42730517D01*
X134031914Y-42786277D01*
X134031501Y-42790123D01*
X134031500Y-42790135D01*
X134031500Y-44585870D01*
X134031501Y-44585876D01*
X134037908Y-44645483D01*
X134088202Y-44780328D01*
X134088206Y-44780335D01*
X134174452Y-44895544D01*
X134174455Y-44895547D01*
X134289664Y-44981793D01*
X134289671Y-44981797D01*
X134421081Y-45030810D01*
X134477015Y-45072681D01*
X134501432Y-45138145D01*
X134486580Y-45206418D01*
X134465430Y-45234673D01*
X134343503Y-45356600D01*
X134207965Y-45550169D01*
X134207964Y-45550171D01*
X134108098Y-45764335D01*
X134108094Y-45764344D01*
X134046938Y-45992586D01*
X134046936Y-45992596D01*
X134026341Y-46227999D01*
X134026341Y-46228000D01*
X134046937Y-46463408D01*
X134073855Y-46563873D01*
X134072192Y-46633723D01*
X134041761Y-46683646D01*
X129214208Y-51511199D01*
X129201951Y-51521020D01*
X129202134Y-51521241D01*
X129196123Y-51526213D01*
X129148772Y-51576636D01*
X129127889Y-51597519D01*
X129127877Y-51597532D01*
X129123621Y-51603017D01*
X129119837Y-51607447D01*
X129087937Y-51641418D01*
X129087936Y-51641420D01*
X129078284Y-51658976D01*
X129067610Y-51675226D01*
X129055329Y-51691061D01*
X129055324Y-51691068D01*
X129036815Y-51733838D01*
X129034245Y-51739084D01*
X129011803Y-51779906D01*
X129006822Y-51799307D01*
X129000521Y-51817710D01*
X128992562Y-51836102D01*
X128992561Y-51836105D01*
X128985271Y-51882127D01*
X128984087Y-51887846D01*
X128972501Y-51932972D01*
X128972500Y-51932982D01*
X128972500Y-51953016D01*
X128970973Y-51972415D01*
X128967840Y-51992194D01*
X128967840Y-51992195D01*
X128972225Y-52038583D01*
X128972500Y-52044421D01*
X128972500Y-78371547D01*
X128952815Y-78438586D01*
X128936181Y-78459228D01*
X127502227Y-79893181D01*
X127440904Y-79926666D01*
X127414546Y-79929500D01*
X126102129Y-79929500D01*
X126102123Y-79929501D01*
X126042516Y-79935908D01*
X125907671Y-79986202D01*
X125907664Y-79986206D01*
X125792455Y-80072452D01*
X125792452Y-80072455D01*
X125706206Y-80187664D01*
X125706202Y-80187671D01*
X125655908Y-80322517D01*
X125649501Y-80382116D01*
X125649500Y-80382135D01*
X125649500Y-82177870D01*
X125649501Y-82177876D01*
X125655908Y-82237483D01*
X125706202Y-82372328D01*
X125706206Y-82372335D01*
X125792452Y-82487544D01*
X125792455Y-82487547D01*
X125907664Y-82573793D01*
X125907671Y-82573797D01*
X126039081Y-82622810D01*
X126095015Y-82664681D01*
X126119432Y-82730145D01*
X126104580Y-82798418D01*
X126083430Y-82826673D01*
X125961503Y-82948600D01*
X125825965Y-83142169D01*
X125825964Y-83142171D01*
X125726098Y-83356335D01*
X125726094Y-83356344D01*
X125664938Y-83584586D01*
X125664936Y-83584596D01*
X125644341Y-83819999D01*
X125644341Y-83820000D01*
X125664936Y-84055403D01*
X125664938Y-84055413D01*
X125726094Y-84283655D01*
X125726096Y-84283659D01*
X125726097Y-84283663D01*
X125797724Y-84437267D01*
X125825965Y-84497830D01*
X125825967Y-84497834D01*
X125961501Y-84691395D01*
X125961506Y-84691402D01*
X126128597Y-84858493D01*
X126128603Y-84858498D01*
X126314158Y-84988425D01*
X126357783Y-85043002D01*
X126364977Y-85112500D01*
X126333454Y-85174855D01*
X126314158Y-85191575D01*
X126128597Y-85321505D01*
X125961505Y-85488597D01*
X125825965Y-85682169D01*
X125825964Y-85682171D01*
X125726098Y-85896335D01*
X125726094Y-85896344D01*
X125664938Y-86124586D01*
X125664936Y-86124596D01*
X125644341Y-86359999D01*
X125644341Y-86360000D01*
X125664936Y-86595403D01*
X125664938Y-86595413D01*
X125726094Y-86823655D01*
X125726096Y-86823659D01*
X125726097Y-86823663D01*
X125825965Y-87037830D01*
X125825967Y-87037834D01*
X125961501Y-87231395D01*
X125961506Y-87231402D01*
X126128597Y-87398493D01*
X126128603Y-87398498D01*
X126314158Y-87528425D01*
X126357783Y-87583002D01*
X126364977Y-87652500D01*
X126333454Y-87714855D01*
X126314158Y-87731575D01*
X126128597Y-87861505D01*
X125961505Y-88028597D01*
X125825965Y-88222169D01*
X125825964Y-88222171D01*
X125726098Y-88436335D01*
X125726094Y-88436344D01*
X125664938Y-88664586D01*
X125664936Y-88664596D01*
X125644341Y-88899999D01*
X125644341Y-88900000D01*
X125664936Y-89135403D01*
X125664938Y-89135413D01*
X125726094Y-89363655D01*
X125726096Y-89363659D01*
X125726097Y-89363663D01*
X125775451Y-89469502D01*
X125825965Y-89577830D01*
X125825967Y-89577834D01*
X125961501Y-89771395D01*
X125961506Y-89771402D01*
X126128597Y-89938493D01*
X126128603Y-89938498D01*
X126314158Y-90068425D01*
X126357783Y-90123002D01*
X126364977Y-90192500D01*
X126333454Y-90254855D01*
X126314158Y-90271575D01*
X126128597Y-90401505D01*
X125961505Y-90568597D01*
X125825965Y-90762169D01*
X125825964Y-90762171D01*
X125726098Y-90976335D01*
X125726094Y-90976344D01*
X125664938Y-91204586D01*
X125664936Y-91204596D01*
X125644341Y-91439999D01*
X125644341Y-91440000D01*
X125664936Y-91675403D01*
X125664938Y-91675413D01*
X125726094Y-91903655D01*
X125726096Y-91903659D01*
X125726097Y-91903663D01*
X125825965Y-92117830D01*
X125825967Y-92117834D01*
X125934281Y-92272521D01*
X125961501Y-92311396D01*
X125961506Y-92311402D01*
X126128597Y-92478493D01*
X126128603Y-92478498D01*
X126314158Y-92608425D01*
X126357783Y-92663002D01*
X126364977Y-92732500D01*
X126333454Y-92794855D01*
X126314158Y-92811575D01*
X126128597Y-92941505D01*
X125961505Y-93108597D01*
X125825965Y-93302169D01*
X125825964Y-93302171D01*
X125726098Y-93516335D01*
X125726094Y-93516344D01*
X125664938Y-93744586D01*
X125664936Y-93744596D01*
X125644341Y-93979999D01*
X125644341Y-93980000D01*
X124206500Y-93980000D01*
X124206500Y-76200000D01*
X125644341Y-76200000D01*
X125664936Y-76435403D01*
X125664938Y-76435413D01*
X125726094Y-76663655D01*
X125726096Y-76663659D01*
X125726097Y-76663663D01*
X125796159Y-76813911D01*
X125825965Y-76877830D01*
X125825967Y-76877834D01*
X125934281Y-77032521D01*
X125961505Y-77071401D01*
X126128599Y-77238495D01*
X126225384Y-77306265D01*
X126322165Y-77374032D01*
X126322167Y-77374033D01*
X126322170Y-77374035D01*
X126536337Y-77473903D01*
X126764592Y-77535063D01*
X126952918Y-77551539D01*
X126999999Y-77555659D01*
X127000000Y-77555659D01*
X127000001Y-77555659D01*
X127039234Y-77552226D01*
X127235408Y-77535063D01*
X127463663Y-77473903D01*
X127677830Y-77374035D01*
X127871401Y-77238495D01*
X128038495Y-77071401D01*
X128174035Y-76877830D01*
X128273903Y-76663663D01*
X128335063Y-76435408D01*
X128355659Y-76200000D01*
X128335063Y-75964592D01*
X128273903Y-75736337D01*
X128174035Y-75522171D01*
X128173652Y-75521623D01*
X128038494Y-75328597D01*
X127871402Y-75161506D01*
X127871396Y-75161501D01*
X127685842Y-75031575D01*
X127642217Y-74976998D01*
X127635023Y-74907500D01*
X127666546Y-74845145D01*
X127685842Y-74828425D01*
X127708026Y-74812891D01*
X127871401Y-74698495D01*
X128038495Y-74531401D01*
X128174035Y-74337830D01*
X128273903Y-74123663D01*
X128335063Y-73895408D01*
X128355659Y-73660000D01*
X128335063Y-73424592D01*
X128273903Y-73196337D01*
X128174035Y-72982171D01*
X128095981Y-72870697D01*
X128038494Y-72788597D01*
X127871402Y-72621506D01*
X127871396Y-72621501D01*
X127685842Y-72491575D01*
X127642217Y-72436998D01*
X127635023Y-72367500D01*
X127666546Y-72305145D01*
X127685842Y-72288425D01*
X127815693Y-72197502D01*
X127871401Y-72158495D01*
X128038495Y-71991401D01*
X128174035Y-71797830D01*
X128273903Y-71583663D01*
X128335063Y-71355408D01*
X128355659Y-71120000D01*
X128335063Y-70884592D01*
X128273903Y-70656337D01*
X128174035Y-70442171D01*
X128167741Y-70433181D01*
X128038494Y-70248597D01*
X127871402Y-70081506D01*
X127871401Y-70081505D01*
X127685405Y-69951269D01*
X127641781Y-69896692D01*
X127634588Y-69827193D01*
X127666110Y-69764839D01*
X127685405Y-69748119D01*
X127871082Y-69618105D01*
X128038105Y-69451082D01*
X128173600Y-69257578D01*
X128273429Y-69043492D01*
X128273432Y-69043486D01*
X128330636Y-68830000D01*
X127433686Y-68830000D01*
X127459493Y-68789844D01*
X127500000Y-68651889D01*
X127500000Y-68508111D01*
X127459493Y-68370156D01*
X127433686Y-68330000D01*
X128330636Y-68330000D01*
X128330635Y-68329999D01*
X128273432Y-68116513D01*
X128273429Y-68116507D01*
X128173600Y-67902422D01*
X128173599Y-67902420D01*
X128038113Y-67708926D01*
X128038108Y-67708920D01*
X127871078Y-67541890D01*
X127685405Y-67411879D01*
X127641780Y-67357302D01*
X127634588Y-67287804D01*
X127666110Y-67225449D01*
X127685406Y-67208730D01*
X127739907Y-67170568D01*
X127871401Y-67078495D01*
X128038495Y-66911401D01*
X128174035Y-66717830D01*
X128273903Y-66503663D01*
X128335063Y-66275408D01*
X128355659Y-66040000D01*
X128335063Y-65804592D01*
X128273903Y-65576337D01*
X128174035Y-65362171D01*
X128038495Y-65168599D01*
X128038494Y-65168597D01*
X127871402Y-65001506D01*
X127871396Y-65001501D01*
X127685842Y-64871575D01*
X127642217Y-64816998D01*
X127635023Y-64747500D01*
X127666546Y-64685145D01*
X127685842Y-64668425D01*
X127787360Y-64597341D01*
X127871401Y-64538495D01*
X128038495Y-64371401D01*
X128174035Y-64177830D01*
X128273903Y-63963663D01*
X128335063Y-63735408D01*
X128355659Y-63500000D01*
X128335063Y-63264592D01*
X128273903Y-63036337D01*
X128174035Y-62822171D01*
X128170426Y-62817016D01*
X128038494Y-62628597D01*
X127871402Y-62461506D01*
X127871396Y-62461501D01*
X127685842Y-62331575D01*
X127642217Y-62276998D01*
X127635023Y-62207500D01*
X127666546Y-62145145D01*
X127685842Y-62128425D01*
X127778674Y-62063423D01*
X127871401Y-61998495D01*
X128038495Y-61831401D01*
X128174035Y-61637830D01*
X128273903Y-61423663D01*
X128335063Y-61195408D01*
X128355659Y-60960000D01*
X128335063Y-60724592D01*
X128273903Y-60496337D01*
X128174035Y-60282171D01*
X128134219Y-60225308D01*
X128038496Y-60088600D01*
X128038495Y-60088599D01*
X127916567Y-59966671D01*
X127883084Y-59905351D01*
X127888068Y-59835659D01*
X127929939Y-59779725D01*
X127960915Y-59762810D01*
X128092331Y-59713796D01*
X128207546Y-59627546D01*
X128293796Y-59512331D01*
X128344091Y-59377483D01*
X128350500Y-59317873D01*
X128350499Y-57522128D01*
X128344091Y-57462517D01*
X128305729Y-57359664D01*
X128293797Y-57327671D01*
X128293793Y-57327664D01*
X128207547Y-57212455D01*
X128207544Y-57212452D01*
X128092335Y-57126206D01*
X128092328Y-57126202D01*
X127957482Y-57075908D01*
X127957483Y-57075908D01*
X127897883Y-57069501D01*
X127897881Y-57069500D01*
X127897873Y-57069500D01*
X127897864Y-57069500D01*
X126102129Y-57069500D01*
X126102123Y-57069501D01*
X126042516Y-57075908D01*
X125907671Y-57126202D01*
X125907664Y-57126206D01*
X125792455Y-57212452D01*
X125792452Y-57212455D01*
X125706206Y-57327664D01*
X125706202Y-57327671D01*
X125655908Y-57462517D01*
X125649501Y-57522116D01*
X125649501Y-57522123D01*
X125649500Y-57522135D01*
X125649500Y-59317870D01*
X125649501Y-59317876D01*
X125655908Y-59377483D01*
X125706202Y-59512328D01*
X125706206Y-59512335D01*
X125792452Y-59627544D01*
X125792455Y-59627547D01*
X125907664Y-59713793D01*
X125907671Y-59713797D01*
X126039081Y-59762810D01*
X126095015Y-59804681D01*
X126119432Y-59870145D01*
X126104580Y-59938418D01*
X126083430Y-59966673D01*
X125961503Y-60088600D01*
X125825965Y-60282169D01*
X125825964Y-60282171D01*
X125726098Y-60496335D01*
X125726094Y-60496344D01*
X125664938Y-60724586D01*
X125664936Y-60724596D01*
X125644341Y-60959999D01*
X125644341Y-60960000D01*
X125664936Y-61195403D01*
X125664938Y-61195413D01*
X125726094Y-61423655D01*
X125726096Y-61423659D01*
X125726097Y-61423663D01*
X125800196Y-61582568D01*
X125825965Y-61637830D01*
X125825967Y-61637834D01*
X125961501Y-61831395D01*
X125961506Y-61831402D01*
X126128597Y-61998493D01*
X126128603Y-61998498D01*
X126314158Y-62128425D01*
X126357783Y-62183002D01*
X126364977Y-62252500D01*
X126333454Y-62314855D01*
X126314158Y-62331575D01*
X126128597Y-62461505D01*
X125961505Y-62628597D01*
X125825965Y-62822169D01*
X125825964Y-62822171D01*
X125726098Y-63036335D01*
X125726094Y-63036344D01*
X125664938Y-63264586D01*
X125664936Y-63264596D01*
X125644341Y-63499999D01*
X125644341Y-63500000D01*
X125664936Y-63735403D01*
X125664938Y-63735413D01*
X125726094Y-63963655D01*
X125726096Y-63963659D01*
X125726097Y-63963663D01*
X125796159Y-64113911D01*
X125825965Y-64177830D01*
X125825967Y-64177834D01*
X125961501Y-64371395D01*
X125961506Y-64371402D01*
X126128597Y-64538493D01*
X126128603Y-64538498D01*
X126314158Y-64668425D01*
X126357783Y-64723002D01*
X126364977Y-64792500D01*
X126333454Y-64854855D01*
X126314158Y-64871575D01*
X126128597Y-65001505D01*
X125961505Y-65168597D01*
X125825965Y-65362169D01*
X125825964Y-65362171D01*
X125726098Y-65576335D01*
X125726094Y-65576344D01*
X125664938Y-65804586D01*
X125664936Y-65804596D01*
X125644341Y-66039999D01*
X125644341Y-66040000D01*
X125664936Y-66275403D01*
X125664938Y-66275413D01*
X125726094Y-66503655D01*
X125726096Y-66503659D01*
X125726097Y-66503663D01*
X125767450Y-66592344D01*
X125825965Y-66717830D01*
X125825967Y-66717834D01*
X125961501Y-66911395D01*
X125961506Y-66911402D01*
X126128597Y-67078493D01*
X126128603Y-67078498D01*
X126314594Y-67208730D01*
X126358219Y-67263307D01*
X126365413Y-67332805D01*
X126333890Y-67395160D01*
X126314595Y-67411880D01*
X126128922Y-67541890D01*
X126128920Y-67541891D01*
X125961891Y-67708920D01*
X125961886Y-67708926D01*
X125826400Y-67902420D01*
X125826399Y-67902422D01*
X125726570Y-68116507D01*
X125726567Y-68116513D01*
X125669364Y-68329999D01*
X125669364Y-68330000D01*
X126566314Y-68330000D01*
X126540507Y-68370156D01*
X126500000Y-68508111D01*
X126500000Y-68651889D01*
X126540507Y-68789844D01*
X126566314Y-68830000D01*
X125669364Y-68830000D01*
X125726567Y-69043486D01*
X125726570Y-69043492D01*
X125826399Y-69257578D01*
X125961894Y-69451082D01*
X126128917Y-69618105D01*
X126314595Y-69748119D01*
X126358219Y-69802696D01*
X126365412Y-69872195D01*
X126333890Y-69934549D01*
X126314595Y-69951269D01*
X126128594Y-70081508D01*
X125961505Y-70248597D01*
X125825965Y-70442169D01*
X125825964Y-70442171D01*
X125726098Y-70656335D01*
X125726094Y-70656344D01*
X125664938Y-70884586D01*
X125664936Y-70884596D01*
X125644341Y-71119999D01*
X125644341Y-71120000D01*
X125664936Y-71355403D01*
X125664938Y-71355413D01*
X125726094Y-71583655D01*
X125726096Y-71583659D01*
X125726097Y-71583663D01*
X125815086Y-71774500D01*
X125825965Y-71797830D01*
X125825967Y-71797834D01*
X125934281Y-71952521D01*
X125961410Y-71991266D01*
X125961501Y-71991395D01*
X125961506Y-71991402D01*
X126128597Y-72158493D01*
X126128603Y-72158498D01*
X126314158Y-72288425D01*
X126357783Y-72343002D01*
X126364977Y-72412500D01*
X126333454Y-72474855D01*
X126314158Y-72491575D01*
X126128597Y-72621505D01*
X125961505Y-72788597D01*
X125825965Y-72982169D01*
X125825964Y-72982171D01*
X125726098Y-73196335D01*
X125726094Y-73196344D01*
X125664938Y-73424586D01*
X125664936Y-73424596D01*
X125644341Y-73659999D01*
X125644341Y-73660000D01*
X125664936Y-73895403D01*
X125664938Y-73895413D01*
X125726094Y-74123655D01*
X125726096Y-74123659D01*
X125726097Y-74123663D01*
X125825965Y-74337830D01*
X125825967Y-74337834D01*
X125961501Y-74531395D01*
X125961506Y-74531402D01*
X126128597Y-74698493D01*
X126128603Y-74698498D01*
X126314158Y-74828425D01*
X126357783Y-74883002D01*
X126364977Y-74952500D01*
X126333454Y-75014855D01*
X126314158Y-75031575D01*
X126128597Y-75161505D01*
X125961505Y-75328597D01*
X125825965Y-75522169D01*
X125825964Y-75522171D01*
X125726098Y-75736335D01*
X125726094Y-75736344D01*
X125664938Y-75964586D01*
X125664936Y-75964596D01*
X125644341Y-76199999D01*
X125644341Y-76200000D01*
X124206500Y-76200000D01*
X124206500Y-41148001D01*
X148554532Y-41148001D01*
X148574364Y-41374686D01*
X148574366Y-41374697D01*
X148633258Y-41594488D01*
X148633261Y-41594497D01*
X148729431Y-41800732D01*
X148729432Y-41800734D01*
X148859954Y-41987141D01*
X149020858Y-42148045D01*
X149020861Y-42148047D01*
X149207266Y-42278568D01*
X149413504Y-42374739D01*
X149633308Y-42433635D01*
X149795230Y-42447801D01*
X149859998Y-42453468D01*
X149860000Y-42453468D01*
X149860002Y-42453468D01*
X149916673Y-42448509D01*
X150086692Y-42433635D01*
X150306496Y-42374739D01*
X150512734Y-42278568D01*
X150699139Y-42148047D01*
X150860047Y-41987139D01*
X150990568Y-41800734D01*
X151086739Y-41594496D01*
X151145635Y-41374692D01*
X151165468Y-41148000D01*
X151145635Y-40921308D01*
X151086739Y-40701504D01*
X150990568Y-40495266D01*
X150860047Y-40308861D01*
X150860045Y-40308858D01*
X150699141Y-40147954D01*
X150512734Y-40017432D01*
X150512732Y-40017431D01*
X150306497Y-39921261D01*
X150306488Y-39921258D01*
X150086697Y-39862366D01*
X150086693Y-39862365D01*
X150086692Y-39862365D01*
X150086691Y-39862364D01*
X150086686Y-39862364D01*
X149860002Y-39842532D01*
X149859998Y-39842532D01*
X149633313Y-39862364D01*
X149633302Y-39862366D01*
X149413511Y-39921258D01*
X149413502Y-39921261D01*
X149207267Y-40017431D01*
X149207265Y-40017432D01*
X149020858Y-40147954D01*
X148859954Y-40308858D01*
X148729432Y-40495265D01*
X148729431Y-40495267D01*
X148633261Y-40701502D01*
X148633258Y-40701511D01*
X148574366Y-40921302D01*
X148574364Y-40921313D01*
X148554532Y-41147998D01*
X148554532Y-41148001D01*
X124206500Y-41148001D01*
X124206500Y-35306001D01*
X145252532Y-35306001D01*
X145272364Y-35532686D01*
X145272366Y-35532697D01*
X145331258Y-35752488D01*
X145331261Y-35752497D01*
X145427431Y-35958732D01*
X145427432Y-35958734D01*
X145557954Y-36145141D01*
X145718858Y-36306045D01*
X145718861Y-36306047D01*
X145905266Y-36436568D01*
X146111504Y-36532739D01*
X146331308Y-36591635D01*
X146493230Y-36605801D01*
X146557998Y-36611468D01*
X146558000Y-36611468D01*
X146558002Y-36611468D01*
X146614673Y-36606509D01*
X146784692Y-36591635D01*
X147004496Y-36532739D01*
X147210734Y-36436568D01*
X147255304Y-36405360D01*
X156403900Y-36405360D01*
X156423686Y-36593616D01*
X156423687Y-36593619D01*
X156482178Y-36773637D01*
X156482181Y-36773644D01*
X156576827Y-36937576D01*
X156690346Y-37063651D01*
X156703489Y-37078248D01*
X156856625Y-37189508D01*
X156856630Y-37189511D01*
X157029552Y-37266502D01*
X157029557Y-37266504D01*
X157214714Y-37305860D01*
X157214715Y-37305860D01*
X157404004Y-37305860D01*
X157404006Y-37305860D01*
X157589163Y-37266504D01*
X157762090Y-37189511D01*
X157915231Y-37078248D01*
X158041893Y-36937576D01*
X158136539Y-36773644D01*
X158195034Y-36593616D01*
X158199561Y-36550536D01*
X158226146Y-36485924D01*
X158283443Y-36445939D01*
X158322882Y-36439500D01*
X163126252Y-36439500D01*
X163193291Y-36459185D01*
X163218400Y-36480526D01*
X163224126Y-36486885D01*
X163224130Y-36486889D01*
X163377265Y-36598148D01*
X163377270Y-36598151D01*
X163550192Y-36675142D01*
X163550197Y-36675144D01*
X163735354Y-36714500D01*
X163735355Y-36714500D01*
X163924644Y-36714500D01*
X163924646Y-36714500D01*
X164088994Y-36679567D01*
X164158661Y-36684883D01*
X164214395Y-36727020D01*
X164238500Y-36792600D01*
X164232706Y-36839174D01*
X164214327Y-36895738D01*
X164196678Y-37063651D01*
X164170093Y-37128266D01*
X164161038Y-37138370D01*
X161092978Y-40206429D01*
X161031655Y-40239914D01*
X160961963Y-40234930D01*
X160917616Y-40206429D01*
X160859141Y-40147954D01*
X160672734Y-40017432D01*
X160672732Y-40017431D01*
X160466497Y-39921261D01*
X160466488Y-39921258D01*
X160246697Y-39862366D01*
X160246693Y-39862365D01*
X160246692Y-39862365D01*
X160246691Y-39862364D01*
X160246686Y-39862364D01*
X160020002Y-39842532D01*
X160019998Y-39842532D01*
X159793313Y-39862364D01*
X159793302Y-39862366D01*
X159573511Y-39921258D01*
X159573502Y-39921261D01*
X159367267Y-40017431D01*
X159367265Y-40017432D01*
X159180858Y-40147954D01*
X159019954Y-40308858D01*
X158889432Y-40495265D01*
X158889431Y-40495267D01*
X158793261Y-40701502D01*
X158793258Y-40701511D01*
X158734366Y-40921302D01*
X158734364Y-40921313D01*
X158714532Y-41147998D01*
X158714532Y-41148001D01*
X158734364Y-41374686D01*
X158734366Y-41374697D01*
X158793258Y-41594488D01*
X158793261Y-41594497D01*
X158889431Y-41800732D01*
X158889432Y-41800734D01*
X159019954Y-41987141D01*
X159180858Y-42148045D01*
X159180861Y-42148047D01*
X159367266Y-42278568D01*
X159573504Y-42374739D01*
X159793308Y-42433635D01*
X159955230Y-42447801D01*
X160019998Y-42453468D01*
X160020000Y-42453468D01*
X160020002Y-42453468D01*
X160076673Y-42448509D01*
X160246692Y-42433635D01*
X160466496Y-42374739D01*
X160672734Y-42278568D01*
X160859139Y-42148047D01*
X161020047Y-41987139D01*
X161132613Y-41826377D01*
X161187189Y-41782752D01*
X161234188Y-41773500D01*
X161329348Y-41773500D01*
X161329350Y-41773500D01*
X161329355Y-41773499D01*
X161329359Y-41773499D01*
X161342088Y-41771890D01*
X161446792Y-41758664D01*
X161593732Y-41700486D01*
X161685450Y-41633849D01*
X161721583Y-41607597D01*
X161721584Y-41607596D01*
X161721583Y-41607596D01*
X161721587Y-41607594D01*
X161822324Y-41485823D01*
X161889614Y-41342826D01*
X161919227Y-41187588D01*
X161920689Y-41179925D01*
X161923604Y-41180481D01*
X161942694Y-41127903D01*
X161954919Y-41113669D01*
X165047772Y-38020819D01*
X165109095Y-37987334D01*
X165135453Y-37984500D01*
X165194644Y-37984500D01*
X165194646Y-37984500D01*
X165379803Y-37945144D01*
X165552730Y-37868151D01*
X165705871Y-37756888D01*
X165832533Y-37616216D01*
X165927179Y-37452284D01*
X165985674Y-37272256D01*
X166005460Y-37084000D01*
X165985674Y-36895744D01*
X165927179Y-36715716D01*
X165832533Y-36551784D01*
X165705871Y-36411112D01*
X165697954Y-36405360D01*
X165552734Y-36299851D01*
X165552729Y-36299848D01*
X165379807Y-36222857D01*
X165379802Y-36222855D01*
X165234001Y-36191865D01*
X165194646Y-36183500D01*
X165005354Y-36183500D01*
X164891148Y-36207774D01*
X164841004Y-36218433D01*
X164771337Y-36213116D01*
X164715604Y-36170978D01*
X164691499Y-36105398D01*
X164697294Y-36058822D01*
X164704360Y-36037076D01*
X164715674Y-36002256D01*
X164735460Y-35814000D01*
X164715674Y-35625744D01*
X164657179Y-35445716D01*
X164562533Y-35281784D01*
X164435871Y-35141112D01*
X164435870Y-35141111D01*
X164282734Y-35029851D01*
X164282729Y-35029848D01*
X164109807Y-34952857D01*
X164109802Y-34952855D01*
X163964001Y-34921865D01*
X163924646Y-34913500D01*
X163735354Y-34913500D01*
X163702897Y-34920398D01*
X163550197Y-34952855D01*
X163550192Y-34952857D01*
X163377270Y-35029848D01*
X163377265Y-35029851D01*
X163224130Y-35141110D01*
X163224126Y-35141114D01*
X163218400Y-35147474D01*
X163158913Y-35184121D01*
X163126252Y-35188500D01*
X157816737Y-35188500D01*
X157801120Y-35186776D01*
X157801093Y-35187062D01*
X157793331Y-35186327D01*
X157724203Y-35188500D01*
X157694650Y-35188500D01*
X157693929Y-35188590D01*
X157687757Y-35189369D01*
X157681945Y-35189826D01*
X157635372Y-35191290D01*
X157635369Y-35191291D01*
X157616126Y-35196881D01*
X157597083Y-35200825D01*
X157577204Y-35203336D01*
X157577203Y-35203337D01*
X157533878Y-35220490D01*
X157528352Y-35222382D01*
X157483608Y-35235383D01*
X157483604Y-35235385D01*
X157466365Y-35245580D01*
X157448898Y-35254137D01*
X157430269Y-35261512D01*
X157430267Y-35261513D01*
X157392564Y-35288906D01*
X157387682Y-35292112D01*
X157347580Y-35315828D01*
X157333408Y-35330000D01*
X157318623Y-35342628D01*
X157302412Y-35354407D01*
X157272709Y-35390310D01*
X157268777Y-35394631D01*
X157169360Y-35494047D01*
X157108037Y-35527532D01*
X157107461Y-35527656D01*
X157029556Y-35544216D01*
X157029552Y-35544217D01*
X156856630Y-35621208D01*
X156856625Y-35621211D01*
X156703489Y-35732471D01*
X156576826Y-35873145D01*
X156482181Y-36037075D01*
X156482178Y-36037082D01*
X156423687Y-36217100D01*
X156423686Y-36217104D01*
X156403900Y-36405360D01*
X147255304Y-36405360D01*
X147397139Y-36306047D01*
X147558047Y-36145139D01*
X147688568Y-35958734D01*
X147784739Y-35752496D01*
X147843635Y-35532692D01*
X147863468Y-35306000D01*
X147861972Y-35288906D01*
X147849042Y-35141110D01*
X147843635Y-35079308D01*
X147784739Y-34859504D01*
X147688568Y-34653266D01*
X147558047Y-34466861D01*
X147558045Y-34466858D01*
X147397141Y-34305954D01*
X147210734Y-34175432D01*
X147210732Y-34175431D01*
X147004497Y-34079261D01*
X147004488Y-34079258D01*
X146784697Y-34020366D01*
X146784693Y-34020365D01*
X146784692Y-34020365D01*
X146784691Y-34020364D01*
X146784686Y-34020364D01*
X146558002Y-34000532D01*
X146557998Y-34000532D01*
X146331313Y-34020364D01*
X146331302Y-34020366D01*
X146111511Y-34079258D01*
X146111502Y-34079261D01*
X145905267Y-34175431D01*
X145905265Y-34175432D01*
X145718858Y-34305954D01*
X145557954Y-34466858D01*
X145427432Y-34653265D01*
X145427431Y-34653267D01*
X145331261Y-34859502D01*
X145331258Y-34859511D01*
X145272366Y-35079302D01*
X145272364Y-35079313D01*
X145252532Y-35305998D01*
X145252532Y-35306001D01*
X124206500Y-35306001D01*
X124206500Y-35097605D01*
X124226185Y-35030566D01*
X124235840Y-35017508D01*
X124290547Y-34952855D01*
X126963818Y-31793534D01*
X127022149Y-31755073D01*
X127056607Y-31749646D01*
X131428559Y-31683737D01*
X177813441Y-31258187D01*
X177880653Y-31277255D01*
G37*
%TD.AperFunction*%
%TD*%
M02*
