%TF.GenerationSoftware,KiCad,Pcbnew,7.0.8*%
%TF.CreationDate,2023-10-31T15:50:40-07:00*%
%TF.ProjectId,lab 4,6c616220-342e-46b6-9963-61645f706362,rev?*%
%TF.SameCoordinates,Original*%
%TF.FileFunction,Legend,Bot*%
%TF.FilePolarity,Positive*%
%FSLAX46Y46*%
G04 Gerber Fmt 4.6, Leading zero omitted, Abs format (unit mm)*
G04 Created by KiCad (PCBNEW 7.0.8) date 2023-10-31 15:50:40*
%MOMM*%
%LPD*%
G01*
G04 APERTURE LIST*
%ADD10C,0.150000*%
%ADD11C,0.120000*%
G04 APERTURE END LIST*
D10*
X156748819Y-39489142D02*
X156272628Y-39155809D01*
X156748819Y-38917714D02*
X155748819Y-38917714D01*
X155748819Y-38917714D02*
X155748819Y-39298666D01*
X155748819Y-39298666D02*
X155796438Y-39393904D01*
X155796438Y-39393904D02*
X155844057Y-39441523D01*
X155844057Y-39441523D02*
X155939295Y-39489142D01*
X155939295Y-39489142D02*
X156082152Y-39489142D01*
X156082152Y-39489142D02*
X156177390Y-39441523D01*
X156177390Y-39441523D02*
X156225009Y-39393904D01*
X156225009Y-39393904D02*
X156272628Y-39298666D01*
X156272628Y-39298666D02*
X156272628Y-38917714D01*
X156748819Y-40441523D02*
X156748819Y-39870095D01*
X156748819Y-40155809D02*
X155748819Y-40155809D01*
X155748819Y-40155809D02*
X155891676Y-40060571D01*
X155891676Y-40060571D02*
X155986914Y-39965333D01*
X155986914Y-39965333D02*
X156034533Y-39870095D01*
X155748819Y-41346285D02*
X155748819Y-40870095D01*
X155748819Y-40870095D02*
X156225009Y-40822476D01*
X156225009Y-40822476D02*
X156177390Y-40870095D01*
X156177390Y-40870095D02*
X156129771Y-40965333D01*
X156129771Y-40965333D02*
X156129771Y-41203428D01*
X156129771Y-41203428D02*
X156177390Y-41298666D01*
X156177390Y-41298666D02*
X156225009Y-41346285D01*
X156225009Y-41346285D02*
X156320247Y-41393904D01*
X156320247Y-41393904D02*
X156558342Y-41393904D01*
X156558342Y-41393904D02*
X156653580Y-41346285D01*
X156653580Y-41346285D02*
X156701200Y-41298666D01*
X156701200Y-41298666D02*
X156748819Y-41203428D01*
X156748819Y-41203428D02*
X156748819Y-40965333D01*
X156748819Y-40965333D02*
X156701200Y-40870095D01*
X156701200Y-40870095D02*
X156653580Y-40822476D01*
X175593333Y-73920819D02*
X175593333Y-74635104D01*
X175593333Y-74635104D02*
X175640952Y-74777961D01*
X175640952Y-74777961D02*
X175736190Y-74873200D01*
X175736190Y-74873200D02*
X175879047Y-74920819D01*
X175879047Y-74920819D02*
X175974285Y-74920819D01*
X174688571Y-74254152D02*
X174688571Y-74920819D01*
X174926666Y-73873200D02*
X175164761Y-74587485D01*
X175164761Y-74587485D02*
X174545714Y-74587485D01*
D11*
%TO.C,J4*%
X173930000Y-47946000D02*
X176590000Y-47946000D01*
X173930000Y-70866000D02*
X173930000Y-47946000D01*
X173930000Y-70866000D02*
X176590000Y-70866000D01*
X173930000Y-72136000D02*
X173930000Y-73466000D01*
X173930000Y-73466000D02*
X175260000Y-73466000D01*
X176590000Y-70866000D02*
X176590000Y-47946000D01*
%TO.C,J2*%
X128330000Y-77530000D02*
X125670000Y-77530000D01*
X128330000Y-59690000D02*
X128330000Y-77530000D01*
X128330000Y-59690000D02*
X125670000Y-59690000D01*
X128330000Y-58420000D02*
X128330000Y-57090000D01*
X128330000Y-57090000D02*
X127000000Y-57090000D01*
X125670000Y-59690000D02*
X125670000Y-77530000D01*
%TO.C,J1*%
X128330000Y-95310000D02*
X125670000Y-95310000D01*
X128330000Y-82550000D02*
X128330000Y-95310000D01*
X128330000Y-82550000D02*
X125670000Y-82550000D01*
X128330000Y-81280000D02*
X128330000Y-79950000D01*
X128330000Y-79950000D02*
X127000000Y-79950000D01*
X125670000Y-82550000D02*
X125670000Y-95310000D01*
%TD*%
M02*
